<svg width="24" height="18" viewBox="0 0 24 18" fill="none" xmlns="http://www.w3.org/2000/svg">
<path d="M0.0184491 14.5548C0.0184491 14.5548 0.0910992 13.9884 0.391544 13.3678C0.672287 12.7251 1.17959 12.0269 1.80634 11.4728C2.43062 10.9163 3.17558 10.505 3.84911 10.3351C4.49926 10.1368 5.06936 10.1688 5.06936 10.1688C6.41521 10.2427 7.44706 11.394 7.37318 12.7411C7.36949 12.8002 7.36333 12.8654 7.35594 12.9245C7.35594 12.9245 7.28206 13.4897 6.96684 14.0931C6.67502 14.7235 6.13446 15.3811 5.47201 15.8921C4.81202 16.4055 4.03258 16.7762 3.3492 16.9338C2.68305 17.1135 2.11294 17.0815 2.11294 17.0815C0.877917 17.0113 -0.0665139 15.9524 0.00367183 14.7162C0.00736582 14.6632 0.0122924 14.6065 0.0184491 14.5548Z" fill="white"/>
<path d="M13.994 3.5825C13.994 3.5825 13.9078 3.10106 13.9977 2.58144C14.0667 2.04212 14.3105 1.4634 14.691 1.01151C15.069 0.557145 15.5874 0.230832 16.107 0.107699C16.6007 -0.0388294 17.0859 0.00672886 17.0859 0.00672886C18.4391 0.134787 19.4919 1.15803 19.7185 2.43369C19.7185 2.43369 19.8034 2.91388 19.6963 3.4175C19.6163 3.94574 19.3331 4.48878 18.9107 4.90251C18.4908 5.3187 17.9343 5.6093 17.4023 5.72012C16.8913 5.85187 16.405 5.80508 16.405 5.80508C15.1663 5.68564 14.2034 4.7498 13.994 3.5825Z" fill="white"/>
<path d="M15.9013 12.4357C15.9013 12.4357 16.022 11.873 16.3741 11.2709C16.7103 10.6454 17.2779 9.98045 17.9539 9.46945C18.6275 8.95475 19.4118 8.59276 20.1038 8.46963C20.7749 8.31572 21.345 8.38711 21.345 8.38711C22.6749 8.55211 23.6193 9.76374 23.4543 11.0936C23.4457 11.1638 23.4321 11.2376 23.4186 11.3066C23.4186 11.3066 23.2979 11.8681 22.931 12.4505C22.5862 13.0625 21.9865 13.6831 21.2785 14.1497C20.5717 14.6189 19.7578 14.9365 19.0572 15.0474C18.3726 15.1816 17.8012 15.1102 17.8012 15.1102C16.581 14.9562 15.7166 13.8431 15.8705 12.6229C15.8779 12.5601 15.889 12.4961 15.9013 12.4357Z" fill="white"/>
</svg>
