<svg width="135" height="157" viewBox="0 0 135 157" fill="none" xmlns="http://www.w3.org/2000/svg">
<path d="M56.2126 10.5326C55.418 11.2966 54.9141 12.3053 54.4653 13.3091C49.849 23.6179 49.5288 35.72 53.4841 46.2832C53.0146 45.7774 52.5422 45.2716 52.0982 44.7765C50.8499 43.4209 49.683 42.1228 48.4956 40.9806C46.154 38.6709 44.1514 36.6059 42.3992 35.0378C41.3158 34.0506 40.3906 33.2173 39.6048 32.5147C36.4599 16.3975 25.4486 7.05246 10.3495 1.11839C7.65734 0.0600219 4.35426 -0.716693 2.06184 1.03946C0.0385396 2.589 -0.302279 5.53118 0.215332 8.01435C0.786963 10.7577 2.1689 13.2652 3.67458 15.6363C7.45108 21.5841 12.2284 27.0659 18.3455 30.6143C24.4222 34.1393 31.9497 35.5689 38.6472 33.4288C39.3966 34.1851 40.2904 35.0778 41.3512 36.1254C43.0179 37.786 44.9381 39.8716 47.2187 42.1998C47.9681 43.0058 48.7627 43.8595 49.575 44.7327C44.8193 42.4113 40.1195 40.8598 34.692 40.4953C28.4148 40.0743 21.9648 41.2925 16.5117 44.4052C13.8677 45.9138 11.2325 48.359 11.4397 51.3772C11.5949 53.6401 13.3717 55.5132 15.3861 56.5842C18.7236 58.3589 22.7663 58.4106 26.4593 57.5793C30.1533 56.748 33.5988 55.1029 37.0669 53.5914C42.0888 51.4035 47.2295 49.4875 52.4518 47.8259C53.1776 48.6065 53.9182 49.4027 54.6804 50.2223C57.3627 53.2113 60.3152 56.4137 63.1949 60.0069C63.3845 60.2271 63.5623 60.4688 63.7499 60.6939C57.679 56.4692 49.9345 54.6078 42.5995 55.7822C41.3728 55.979 40.1225 56.2704 39.1137 56.9896C36.9824 58.509 36.5414 61.7201 37.7731 64.0181C39.0037 66.3161 41.5614 67.7088 44.1592 68.0703C46.7581 68.4319 49.4021 67.8871 51.9018 67.0929C54.4005 66.2986 56.8186 65.2539 59.3497 64.5697C61.5331 63.9791 63.7911 63.678 66.0541 63.6429C67.9477 66.2158 69.752 68.9718 71.5838 71.798C73.1739 74.2003 74.9605 76.5353 76.7579 78.9084C70.5004 75.0365 62.6685 73.8494 55.1892 73.4216C49.2253 73.0805 42.6496 73.3115 38.164 77.2263C36.7997 78.4162 35.6643 80.0057 35.5278 81.8028C35.4031 83.4488 36.1318 85.053 37.0973 86.3959C40.1833 90.6878 45.6738 92.8328 50.9884 92.9127C56.3029 92.9926 61.484 91.2521 66.3134 89.0486C70.7656 87.0176 75.0361 84.5998 79.5306 82.6682C79.9186 83.2081 80.3144 83.7393 80.6916 84.2908C82.1697 86.47 83.6607 88.6656 85.1566 90.871C86.5984 93.1115 88.0796 95.3403 89.5931 97.5506C89.654 97.6422 89.7139 97.7339 89.7748 97.8245C82.2159 93.2373 72.4383 92.3543 64.2056 95.6522C63.0947 96.0976 61.9564 96.6589 61.3033 97.6559C60.1237 99.4539 61.0754 102.026 62.8217 103.29C64.569 104.554 66.8428 104.813 69.0046 104.876C76.6518 105.101 84.3453 103.371 91.1557 99.913C93.5817 103.597 95.9095 107.335 97.6843 111.32C98.5506 113.041 99.4886 114.704 100.44 116.347C93.4491 110.687 84.0978 107.973 75.0342 108.495C69.1745 108.832 63.0653 110.627 59.1916 115.002C58.2811 116.031 57.4983 117.214 57.185 118.547C56.3668 122.031 59.0874 125.581 62.4445 126.883C65.8017 128.185 69.5693 127.76 73.1101 127.089C82.6255 125.288 91.8148 121.859 101.434 120.726C101.929 120.667 102.428 120.615 102.927 120.596C103.749 121.99 104.561 123.38 105.323 124.773C107.791 129.052 110.069 133.251 112.148 137.282C108.66 133.854 104.551 131.022 99.8893 129.553C94.3341 127.803 87.9509 128.159 83.0537 131.299C82.7276 131.508 82.3976 131.741 82.212 132.079C81.9979 132.469 82.0077 132.943 82.0873 133.38C82.5783 136.077 85.2862 137.769 87.8684 138.74C95.5225 141.622 103.948 141.133 112.142 140.336L113.334 139.707C113.411 139.87 113.496 140.032 113.571 140.194C113.096 140.242 112.619 140.289 112.142 140.336L111.78 140.527C112.384 140.43 112.988 140.333 113.592 140.235C115.068 143.387 116.343 146.472 117.774 149.235C125.118 163.541 120.088 153.7 120.088 153.7C120.088 153.7 127.253 162.454 120.088 148.058C119.824 147.516 119.523 146.969 119.235 146.425C124.806 140.246 131.036 134.378 134.137 126.708C134.729 125.243 135.204 123.652 134.911 122.101C134.618 120.549 133.343 119.081 131.751 119.048C130.363 119.019 129.189 120.023 128.226 121.017C122.077 127.369 118.391 135.437 117.985 144.128C116.642 141.752 115.19 139.308 113.821 136.68C112.895 134.89 111.945 133.05 110.978 131.18C117.614 125.209 123.524 118.445 128.519 111.069C131.765 106.275 134.727 100.844 134.361 95.0801C134.236 93.1223 133.686 91.1225 132.392 89.6392C131.097 88.155 128.954 87.3042 127.07 87.9045C125.667 88.3518 124.615 89.4911 123.672 90.6147C116.047 99.7005 111.021 110.908 109.325 122.607C109.091 124.222 108.944 125.907 109.091 127.527C108.453 126.293 107.81 125.048 107.159 123.788C105.99 121.558 104.821 119.281 103.584 117.002C102.687 115.346 101.792 113.668 100.795 112.033C106.025 106.633 109.888 99.9393 111.898 92.7217C112.473 90.6537 112.894 88.422 112.191 86.3939C111.489 84.3659 109.292 82.7062 107.212 83.2939C106.06 83.6194 105.183 84.5335 104.427 85.4554C99.1655 91.869 97.0508 100.662 98.6243 108.762C98.2019 108.149 97.7816 107.538 97.3582 106.923C96.6128 105.817 95.9518 104.658 95.2564 103.515C94.1681 101.754 93.1476 99.9441 92.1222 98.1354C97.2207 90.8116 100.828 82.4713 102.634 73.7539C103.385 70.1247 103.83 66.3834 103.304 62.7161C102.78 59.0489 101.209 55.4362 98.4347 52.9579C97.5566 52.1734 96.5342 51.4951 95.3732 51.2768C93.7281 50.9669 92.0083 51.6403 90.7472 52.7328C89.486 53.8262 88.6207 55.2968 87.9008 56.7967C85.023 62.7814 84.1243 69.5809 84.6056 76.1942C84.968 81.181 85.9688 85.7527 87.4362 90.3643C87.2948 90.1382 87.1602 89.9053 87.0178 89.6792C85.5504 87.4377 84.0889 85.205 82.6392 82.9898C80.0266 79.2105 77.7146 75.2879 75.0145 71.7844C79.2487 65.6768 82.0008 58.5626 82.9133 51.2057C83.1451 49.3365 83.259 47.4166 82.8033 45.5893C82.3436 43.7474 81.2985 42.0536 79.8547 40.8091C78.9177 40.0012 77.7322 39.3609 76.4937 39.4545C74.6472 39.5938 73.3252 41.2584 72.4393 42.8713C68.3141 50.3831 68.5842 59.5937 71.6073 67.6854C70.6831 66.6407 69.752 65.6174 68.8572 64.5931C67.2739 62.7473 65.8134 60.8762 64.3146 59.1142C62.8296 57.3415 61.4712 55.5463 60.0539 53.8945C59.5383 53.2834 59.0364 52.688 58.5335 52.0925C65.2988 43.1977 68.7718 31.8919 68.1284 20.7683C67.9379 17.4773 67.3083 14.004 65.0866 11.553C62.8561 9.10292 58.5993 8.23849 56.2126 10.5326Z" fill="#3E7BA8"/>
</svg>
