<svg width="156" height="189" viewBox="0 0 156 189" fill="none" xmlns="http://www.w3.org/2000/svg">
<path d="M126.435 178.34C113.686 184.974 99.3326 189.056 84.9962 188.045C70.6599 187.034 56.438 180.642 47.4764 169.406C44.1654 165.255 41.5537 160.356 41.0686 155.069C40.7373 151.471 41.3986 147.859 41.4478 144.247C41.5709 135.191 37.6307 126.157 30.9126 120.085C21.5372 111.613 6.68493 107.985 2.45039 96.0781C-0.232679 88.5325 2.52304 80.1915 5.91535 72.9378C9.30766 65.684 13.4486 58.3945 13.6099 50.3872C13.7835 41.7851 9.33599 33.8529 7.1393 25.5353C4.94261 17.2164 6.00893 6.56049 13.6346 2.57468C16.2117 1.22761 19.1916 0.865607 22.0987 0.840981C31.1096 0.76587 40.1168 3.82202 47.2191 9.3667C53.1307 13.9805 57.8073 20.2763 64.502 23.6551C75.5212 29.217 89.2259 25.5735 100.744 30.0099C110.088 33.6091 117.044 42.7542 118.018 52.7193C118.678 59.4756 116.803 66.1852 115.864 72.9082C114.926 79.6313 115.105 87.0513 119.226 92.4457C124.203 98.9595 133.23 100.531 140.16 104.909C147.782 109.725 152.778 118.109 154.497 126.959C154.497 126.961 158.063 161.88 126.435 178.34Z" fill="#5A9FD1"/>
<path d="M126.667 178.8C122.086 181.175 117.295 183.259 112.37 184.872C107.45 186.507 102.378 187.759 97.2086 188.388C92.0543 189.058 86.7768 189.133 81.6114 188.517C76.3905 187.876 71.3076 186.541 66.4574 184.541C56.8456 180.455 48.2091 173.552 43.1139 164.247C41.8875 161.905 40.9516 159.377 40.5108 156.736C40.0454 154.085 40.2202 151.401 40.4296 148.837C40.661 146.265 40.8359 143.734 40.6142 141.23C40.4246 138.724 39.8816 136.233 39.0652 133.849C37.4411 129.074 34.6916 124.67 31.037 121.2C27.3294 117.706 22.8819 115.217 18.406 112.63C13.9547 110.05 9.30401 107.477 5.59155 103.492C3.74087 101.522 2.2251 99.1663 1.2425 96.5818C1.00362 95.8405 0.815231 95.3726 0.642844 94.64C0.467996 93.9418 0.31285 93.2449 0.22912 92.5701C0.00748032 91.207 -0.033162 89.8304 0.0222478 88.4686C0.272208 82.9941 2.15122 77.9062 4.35407 73.1779C6.56677 68.4521 9.05899 63.9688 10.7225 59.2183C11.5771 56.8554 12.1398 54.4186 12.3799 51.9658C12.4267 51.3637 12.4661 50.7135 12.4735 50.1484C12.4599 49.513 12.4821 48.8345 12.4193 48.2533C12.3602 47.0651 12.1668 45.803 11.9415 44.5852C10.9934 39.6648 8.99617 34.918 7.36097 29.9755C6.54829 27.4784 5.77995 25.0194 5.40439 22.308C5.03622 19.668 4.97713 16.9764 5.32559 14.3081C5.66667 11.6447 6.51012 8.9961 7.96555 6.65411C9.37912 4.28134 11.6337 2.41096 14.1628 1.32123C16.7351 0.257364 19.46 0.00492532 22.0877 0C24.6882 0.00615665 27.3713 0.270907 29.9288 0.776984C35.0844 1.7879 40.0528 3.7334 44.4819 6.5593C45.6011 7.25501 46.6638 8.00118 47.7313 8.80524C48.7349 9.58836 49.7717 10.4466 50.7346 11.311C52.6985 13.0225 54.564 14.8141 56.4738 16.5134C58.3762 18.22 60.3475 19.8072 62.4322 21.1579C63.4763 21.813 64.5611 22.4545 65.6681 22.9064C66.8686 23.4692 68.0064 23.8287 69.1417 24.2203C78.7153 27.072 89.4451 25.1672 99.6947 28.5348C109.963 31.8816 117.612 41.5032 118.857 52.1271C120.06 62.8594 115.089 72.8085 116.51 82.8525C116.832 85.3225 117.51 87.7347 118.693 89.8673C119.013 90.3833 119.311 90.914 119.684 91.3917L119.95 91.7587C119.975 91.8104 120.138 91.9828 120.226 92.0887L120.859 92.8201C121.687 93.6783 122.57 94.4762 123.595 95.1854C127.606 98.0828 132.581 99.5555 137.286 101.915C138.473 102.484 139.638 103.14 140.785 103.833C141.391 104.238 141.871 104.545 142.43 104.946C142.967 105.367 143.551 105.764 144.047 106.21C146.101 107.947 147.905 109.959 149.458 112.133C152.551 116.5 154.596 121.535 155.599 126.747L155.612 126.81L155.614 126.848C155.716 128.231 155.716 129.519 155.688 130.846C155.657 132.163 155.581 133.476 155.457 134.784C155.217 137.399 154.818 139.997 154.252 142.56C153.687 145.121 152.955 147.646 152.053 150.108C151.61 151.34 151.116 152.558 150.576 153.751C150.052 154.954 149.449 156.118 148.848 157.283C148.199 158.422 147.569 159.57 146.841 160.661C146.158 161.779 145.363 162.825 144.6 163.886C143.784 164.909 142.997 165.957 142.108 166.919C141.267 167.923 140.32 168.828 139.406 169.763C138.44 170.643 137.501 171.557 136.474 172.366L134.946 173.594C134.429 173.992 133.886 174.356 133.358 174.739C132.313 175.524 131.186 176.185 130.085 176.884C128.977 177.572 127.81 178.156 126.674 178.796L126.667 178.8ZM126.198 177.883C127.304 177.239 128.444 176.651 129.521 175.963C130.591 175.264 131.688 174.604 132.702 173.823C133.214 173.441 133.741 173.079 134.242 172.684L135.72 171.466C136.713 170.665 137.617 169.758 138.549 168.89C139.428 167.966 140.341 167.073 141.149 166.085C142.002 165.137 142.76 164.112 143.535 163.099C144.253 162.047 145.001 161.015 145.639 159.912C146.323 158.837 146.908 157.704 147.512 156.584C148.067 155.439 148.628 154.297 149.108 153.117C149.605 151.946 150.056 150.755 150.457 149.549C151.275 147.14 151.928 144.675 152.416 142.179C152.905 139.683 153.232 137.157 153.404 134.622C153.494 133.355 153.537 132.087 153.537 130.821C153.536 129.567 153.499 128.268 153.383 127.077L153.398 127.177C152.393 122.282 150.404 117.574 147.48 113.553C144.53 109.533 140.727 106.282 136.186 104.125C133.932 103.002 131.564 102.006 129.207 100.882C126.853 99.7685 124.479 98.5445 122.326 96.9032C121.252 96.1127 120.233 95.151 119.31 94.1216L118.699 93.3717C118.586 93.2264 118.52 93.1698 118.369 92.9494L118.08 92.5258C117.676 91.9717 117.354 91.3683 117.015 90.7773C115.761 88.3528 115.041 85.7165 114.742 83.0716C113.482 72.3665 118.263 62.3471 117.049 52.3401C115.863 42.4402 108.505 33.5032 99.031 30.553C89.4697 27.4451 78.8076 29.5421 68.4521 26.497L66.5066 25.821C65.8491 25.592 65.3172 25.2903 64.7163 25.0292C63.4505 24.4665 62.3251 23.756 61.2058 23.0148C58.9857 21.5163 57.0377 19.7234 55.1723 17.9146C53.3043 16.1033 51.5275 14.2403 49.667 12.4918C48.7262 11.6176 47.7917 10.8135 46.7771 9.98978C45.7969 9.22759 44.7663 8.46417 43.7024 7.78817C39.4186 5.09895 34.6288 3.17438 29.6419 2.30506C27.1324 1.85932 24.6575 1.64999 22.1012 1.68569C19.5918 1.73002 17.0811 2.03664 14.8832 2.99584C12.7049 3.99445 10.8333 5.58902 9.63277 7.68474C8.39652 9.74599 7.68112 12.136 7.39299 14.5826C7.08515 17.0305 7.1492 19.54 7.50628 22.0026C7.8412 24.4062 8.61446 26.8984 9.41236 29.2921C11.0303 34.1226 13.099 38.9309 14.1407 44.1579C14.3894 45.473 14.5987 46.7647 14.6763 48.1524C14.7465 48.8555 14.7243 49.4699 14.7416 50.1213C14.7379 50.8441 14.6972 51.4831 14.6492 52.1653C14.4042 54.8471 13.7897 57.4686 12.9524 59.9756C11.2901 65.008 8.82749 69.6231 6.75763 74.2713C5.71962 76.5875 4.80473 78.9418 4.10534 81.3355C3.3727 83.7193 2.89864 86.1574 2.77797 88.5868C2.73734 89.7996 2.75457 91.0113 2.91341 92.1995C2.97374 92.8078 3.09073 93.3705 3.2114 93.9283C3.30621 94.4565 3.56725 95.2039 3.70762 95.6928C4.50306 97.9621 5.79841 100.025 7.37944 101.894C10.5698 105.651 14.9743 108.387 19.3049 111.124C21.4868 112.495 23.7143 113.822 25.8715 115.283C26.9465 116.016 28.0128 116.776 29.0558 117.601C29.5975 117.993 30.0605 118.429 30.558 118.842L31.2956 119.466C31.5738 119.711 31.7832 119.927 32.0307 120.159C35.8527 123.805 38.7106 128.407 40.3963 133.394C41.2361 135.889 41.8099 138.474 42.0401 141.109C42.2938 143.748 42.1276 146.387 41.9182 148.948C41.7286 151.511 41.5956 154.029 42.0426 156.472C42.4662 158.919 43.3515 161.286 44.5274 163.5C45.7169 165.718 47.144 167.79 48.8137 169.71C50.4218 171.665 52.2577 173.424 54.1847 175.063C58.0573 178.333 62.4765 180.928 67.1469 182.904C76.4903 186.9 86.9012 188.164 97.0547 187.06C102.135 186.525 107.157 185.399 112.036 183.842C116.92 182.258 121.623 180.235 126.205 177.878L126.198 177.883Z" fill="#3E7BA8"/>
<path d="M23.7118 16.3595C23.7118 16.3595 24.3483 16.6329 25.5464 17.2141C26.7605 17.7953 28.4758 18.7151 30.5739 20.0523C32.6574 21.403 35.1065 23.1774 37.6947 25.4664C40.2781 27.753 43.067 30.505 45.7452 33.7804C47.1452 35.3331 48.4442 37.169 49.8652 38.9643C51.1642 40.8433 52.579 42.742 53.8473 44.8131C56.4799 48.8937 58.9967 53.3622 61.2968 58.1225C65.971 67.6161 69.9556 78.1636 73.7345 88.7272C75.6135 94.0084 77.4937 99.2896 79.3432 104.488C81.2345 109.656 83.1973 114.705 85.2462 119.522C87.2816 124.345 89.466 128.907 91.6737 133.155C93.8606 137.418 96.2395 141.272 98.5236 144.761C99.7217 146.468 100.816 148.144 102.002 149.63C102.576 150.387 103.136 151.125 103.679 151.843C104.258 152.532 104.819 153.201 105.364 153.85C105.914 154.494 106.426 155.135 106.957 155.72C107.499 156.296 108.021 156.852 108.523 157.385C109.026 157.919 109.507 158.432 109.968 158.92C110.454 159.382 110.919 159.823 111.359 160.242C112.249 161.069 113.016 161.84 113.733 162.456C114.458 163.06 115.074 163.575 115.575 163.992C116.575 164.827 117.109 165.273 117.109 165.273L117.141 165.3C117.413 165.528 117.45 165.933 117.223 166.205C116.997 166.475 116.598 166.513 116.326 166.294C116.326 166.294 115.776 165.85 114.743 165.019C114.227 164.603 113.589 164.091 112.84 163.487C112.1 162.874 111.306 162.106 110.385 161.278C109.928 160.861 109.448 160.42 108.943 159.958C108.467 159.47 107.967 158.956 107.446 158.423C106.925 157.889 106.383 157.333 105.82 156.756C105.269 156.17 104.736 155.527 104.164 154.882C103.599 154.231 103.014 153.56 102.413 152.87C101.847 152.151 101.265 151.41 100.667 150.651C99.441 149.153 98.3155 147.46 97.0793 145.738C94.7237 142.217 92.2722 138.328 90.0151 134.034C87.7323 129.758 85.4814 125.162 83.4275 120.298C79.2373 110.599 75.5433 99.968 71.7964 89.4167C68.0642 78.8544 64.1461 68.3659 59.5619 58.966C57.2913 54.2586 54.8841 49.8147 52.3266 45.7747C51.099 43.7209 49.7273 41.8431 48.4689 39.9789C47.0935 38.207 45.8831 36.44 44.4818 34.8516C39.2216 28.3527 33.8788 23.8374 29.8487 21.1555C27.833 19.8171 26.1609 18.8813 25.0145 18.3075C23.8595 17.7201 23.2118 17.4283 23.2118 17.4283C22.9151 17.2941 22.7833 16.9456 22.9175 16.6489C23.0505 16.3558 23.3916 16.2241 23.6859 16.3497L23.7118 16.3595Z" fill="#3E7BA8"/>
<path d="M69.835 81.1902C69.835 81.1902 70.3989 80.6706 71.3877 79.7619C72.3888 78.8605 73.7654 77.5603 75.4265 75.9792C76.2625 75.1973 77.1479 74.3292 78.0812 73.4094C79.0059 72.481 79.9811 71.5021 80.9908 70.4887C82.9979 68.4521 85.0863 66.2308 87.1229 63.9627C89.1632 61.6983 91.1702 59.4031 92.9914 57.2002C93.8952 56.0933 94.7694 55.0232 95.5981 54.0074C96.4206 52.9879 97.1951 52.0188 97.8896 51.1101C99.2872 49.2988 100.458 47.7904 101.247 46.7118C102.05 45.643 102.51 45.031 102.51 45.031L102.517 45.0224C102.73 44.7379 103.134 44.6813 103.418 44.8943C103.689 45.0975 103.752 45.4743 103.575 45.755C103.575 45.755 103.161 46.4039 102.436 47.5392C101.693 48.6634 100.65 50.2838 99.2896 52.1518C97.9438 54.0296 96.3406 56.2016 94.5256 58.4513C92.7032 60.6935 90.7122 63.0503 88.6497 65.343C86.5564 67.6074 84.4127 69.8238 82.3552 71.8531C80.2816 73.8663 78.2856 75.6812 76.5457 77.2007C74.817 78.7288 73.2987 79.9416 72.2607 80.7814C71.2055 81.6113 70.6021 82.0854 70.6021 82.0854C70.346 82.2873 69.9754 82.243 69.7734 81.9856C69.5789 81.7455 69.6109 81.3971 69.835 81.1902Z" fill="#3E7BA8"/>
<path d="M73.5154 91.8289C73.5154 91.8289 72.7225 92.0998 71.336 92.5739C70.6489 92.8189 69.7821 93.064 68.7847 93.3472C67.791 93.6476 66.6631 93.9431 65.4244 94.2116C64.1918 94.5194 62.8386 94.7546 61.4115 95.0328C59.9794 95.2754 58.4674 95.5377 56.8937 95.7125C55.3201 95.9034 53.6923 96.0647 52.0349 96.1854C50.3788 96.3134 48.6931 96.4082 47.0086 96.4698C43.6372 96.5892 40.2696 96.5314 37.1186 96.4587C33.9664 96.3947 31.0358 96.1718 28.5227 96.0302C26.012 95.8751 23.9249 95.6781 22.4633 95.5648C22.0693 95.5205 21.8489 95.5439 21.3699 95.4392C21.1605 95.3789 20.9266 95.3013 20.6963 95.0661C20.4956 94.81 20.2838 94.5354 20.5153 93.9714C20.6889 93.6845 20.9155 93.6156 21.0559 93.5774C21.195 93.5479 21.3059 93.5503 21.4007 93.5614C21.5928 93.6008 21.7479 93.6107 21.9942 93.8619C22.1284 94.001 22.2109 94.2891 22.1432 94.5145C22.105 94.6573 21.9917 94.8063 21.9683 94.8211C21.887 94.9023 21.839 94.9344 21.839 94.9344C21.5497 95.1412 21.1482 95.0747 20.9414 94.7854C20.7345 94.496 20.801 94.0946 21.0904 93.8877C21.0904 93.8877 21.0608 93.9013 21.019 93.9481C21.019 93.9481 20.9131 94.0638 20.8958 94.1746C20.8343 94.3618 20.9106 94.6043 21.0091 94.7041C21.1864 94.8802 21.216 94.842 21.2615 94.8642C21.2825 94.8654 21.3108 94.8728 21.365 94.8605C21.4241 94.8457 21.5595 94.8161 21.6814 94.6154C21.8329 94.2337 21.7036 94.2042 21.6679 94.1167C21.6063 94.0564 21.626 94.0823 21.6913 94.0897C21.7688 94.1057 22.2084 94.1069 22.5446 94.1192C24.0086 94.1598 26.0994 94.2177 28.6076 94.2879C31.1134 94.3692 34.0378 94.4246 37.1629 94.4812C38.7255 94.5132 40.3397 94.5169 41.9799 94.5108C43.6188 94.5022 45.2823 94.464 46.9446 94.4123C48.6069 94.3729 50.2667 94.3002 51.8982 94.1968C53.531 94.0995 55.1317 93.9616 56.6782 93.7941C58.2236 93.6267 59.7172 93.4506 61.1283 93.2548C62.5344 93.0319 63.8717 92.8485 65.087 92.5899C66.3109 92.3596 67.4278 92.1429 68.403 91.9053C69.3843 91.6873 70.2413 91.4977 70.9493 91.2896C72.3666 90.914 73.1768 90.6998 73.1768 90.6998C73.492 90.6161 73.8147 90.8045 73.8984 91.1185C73.9747 91.4201 73.8048 91.728 73.5154 91.8289Z" fill="#3E7BA8"/>
<path d="M104.748 152.538C104.748 152.538 105.257 152.029 106.146 151.135C107.049 150.248 108.282 148.974 109.768 147.417C110.518 146.648 111.307 145.794 112.138 144.888C112.979 143.992 113.815 142.998 114.723 142.012C116.502 140.005 118.341 137.815 120.122 135.579C120.999 134.45 121.91 133.348 122.754 132.221C123.618 131.111 124.427 129.987 125.223 128.908C126 127.816 126.749 126.759 127.462 125.757C128.167 124.75 128.829 123.794 129.418 122.897C130.606 121.109 131.6 119.618 132.261 118.554C132.938 117.497 133.325 116.894 133.325 116.894L133.332 116.883C133.524 116.584 133.922 116.496 134.221 116.688C134.504 116.87 134.597 117.24 134.442 117.533C134.442 117.533 134.102 118.172 133.507 119.29C132.894 120.397 132.035 121.993 130.887 123.837C129.755 125.692 128.396 127.834 126.833 130.058C125.262 132.274 123.533 134.603 121.727 136.871C119.886 139.111 117.988 141.302 116.155 143.308C114.303 145.297 112.512 147.092 110.94 148.591C109.383 150.098 108 151.296 107.057 152.123C106.096 152.94 105.548 153.408 105.548 153.408C105.3 153.618 104.928 153.589 104.717 153.341C104.517 153.102 104.535 152.754 104.748 152.538Z" fill="#3E7BA8"/>
<path d="M99.659 147.917C99.659 147.917 99.0508 148.139 97.9857 148.525C96.9169 148.894 95.3925 149.454 93.5369 150.044C91.685 150.641 89.5117 151.318 87.1537 151.956C84.787 152.564 82.2443 153.161 79.6672 153.632C78.373 153.836 77.0789 154.047 75.791 154.169C74.5091 154.329 73.2359 154.403 72.0058 154.481C70.7733 154.527 69.5789 154.56 68.4473 154.504C67.3145 154.457 66.2457 154.41 65.2631 154.288C64.7718 154.236 64.3002 154.186 63.8532 154.139C63.4087 154.06 62.9876 153.986 62.5911 153.916C61.7994 153.783 61.1123 153.655 60.5545 153.504C59.4377 153.222 58.7998 153.06 58.7998 153.06C58.4551 152.974 58.247 152.625 58.3344 152.28C58.4157 151.956 58.7309 151.751 59.0547 151.802L59.1003 151.809C59.1003 151.809 59.7283 151.909 60.8291 152.083C61.3746 152.191 62.0456 152.266 62.8152 152.339C63.5836 152.43 64.4504 152.506 65.4022 152.548C66.3504 152.627 67.381 152.626 68.4719 152.626C69.5604 152.628 70.7117 152.551 71.9 152.505C73.0882 152.414 74.3158 152.329 75.5582 152.158C76.8043 152.031 78.0591 151.788 79.3199 151.603C81.8392 151.186 84.3425 150.643 86.6821 150.083C87.8518 149.792 88.9809 149.513 90.0534 149.247C91.1235 148.965 92.1356 148.699 93.069 148.453C96.8134 147.454 99.3094 146.789 99.3094 146.789C99.6246 146.706 99.9472 146.893 100.031 147.208C100.11 147.507 99.9423 147.812 99.659 147.917Z" fill="#3E7BA8"/>
<path d="M82.7812 115.017C82.7812 115.017 83.174 114.638 83.8623 113.974C84.5654 113.318 85.516 112.372 86.6784 111.229C87.8506 110.101 89.1534 108.72 90.5645 107.26C91.9694 105.795 93.4298 104.194 94.8507 102.562C96.2791 100.937 97.6889 99.292 98.9621 97.711C100.218 96.1176 101.433 94.6597 102.401 93.3533C104.36 90.7515 105.665 89.0166 105.665 89.0166L105.674 89.0055C105.888 88.721 106.292 88.6644 106.575 88.8786C106.84 89.0781 106.905 89.4438 106.742 89.7221C106.742 89.7221 106.461 90.1949 105.971 91.0211C105.464 91.8375 104.758 93.0196 103.816 94.374C102.884 95.7347 101.783 97.3157 100.511 98.9411C99.2355 100.563 97.8429 102.268 96.3923 103.924C94.9135 105.556 93.3977 107.152 91.9411 108.612C90.4709 110.059 89.045 111.354 87.8063 112.441C86.5762 113.534 85.4803 114.394 84.7403 114.989C83.9842 115.574 83.552 115.909 83.552 115.909C83.2947 116.108 82.9241 116.061 82.7246 115.803C82.5387 115.563 82.5682 115.223 82.7812 115.017Z" fill="#3E7BA8"/>
<path d="M88.0821 125.519C88.0821 125.519 87.592 125.665 86.7326 125.92C85.8793 126.153 84.6036 126.511 83.0866 126.806C81.5659 127.12 79.7768 127.418 77.8448 127.638C75.9116 127.833 73.8405 127.956 71.7658 127.998C69.691 127.994 67.6174 127.885 65.6817 127.716C63.7461 127.534 61.9533 127.241 60.4289 126.948C58.8996 126.674 57.6498 126.33 56.7755 126.102C55.9062 125.854 55.4088 125.711 55.4088 125.711C55.0665 125.614 54.8695 125.258 54.9667 124.916C55.0578 124.598 55.3718 124.404 55.6907 124.458L55.7105 124.462C55.7105 124.462 56.2104 124.544 57.0859 124.689C57.9564 124.851 59.2099 125.023 60.7084 125.227C61.4571 125.337 62.2722 125.425 63.1341 125.509C63.9948 125.603 64.9085 125.652 65.8468 125.746C66.7899 125.803 67.7615 125.878 68.7539 125.897C69.7439 125.947 70.7511 125.922 71.7571 125.942C73.7704 125.944 75.7848 125.868 77.6675 125.719C78.6058 125.618 79.5207 125.58 80.3814 125.474C81.2433 125.383 82.0584 125.29 82.8071 125.176C84.3142 124.968 85.5382 124.785 86.426 124.616C87.3088 124.462 87.8124 124.374 87.8124 124.374C88.1338 124.319 88.4392 124.533 88.4958 124.854C88.5475 125.15 88.3653 125.436 88.0821 125.519Z" fill="#3E7BA8"/>
<path d="M61.9237 61.4261C61.9237 61.4261 61.3314 61.5801 60.2959 61.8497C59.264 62.0997 57.7421 62.4765 55.9259 62.7941C54.1072 63.1315 51.9708 63.4554 49.6683 63.7016C47.3632 63.922 44.8981 64.071 42.428 64.1363C39.9568 64.156 37.4867 64.0686 35.1767 63.9183C32.8668 63.7546 30.7218 63.4788 28.8933 63.1968C27.061 62.9357 25.5539 62.5984 24.4999 62.3767C23.4496 62.1341 22.8487 61.995 22.8487 61.995C22.5027 61.915 22.286 61.569 22.366 61.223C22.4411 60.8979 22.7502 60.6873 23.0752 60.7292L23.0949 60.7317C23.0949 60.7317 23.6971 60.8117 24.7511 60.9508C25.8014 61.1072 27.3098 61.2722 29.1161 61.4655C30.0187 61.5702 30.9988 61.6502 32.0369 61.729C33.0736 61.8165 34.1695 61.8571 35.2999 61.9421C36.4327 61.9901 37.6025 62.0566 38.7932 62.0652C39.9826 62.1046 41.1918 62.0677 42.4009 62.0775C44.8193 62.0566 47.2364 61.9532 49.4983 61.7783C50.6262 61.6638 51.7234 61.6133 52.7577 61.4926C53.7932 61.388 54.7721 61.2833 55.6722 61.1565C57.481 60.925 58.9599 60.7193 60.0225 60.5346C61.0802 60.366 61.6836 60.2699 61.6836 60.2699C62.0049 60.2182 62.3078 60.4386 62.3596 60.76C62.4051 61.0641 62.213 61.3486 61.9237 61.4261Z" fill="#3E7BA8"/>
<path d="M55.4099 49.3652C55.4099 49.3652 55.6205 49.1473 55.9899 48.7656C56.3765 48.39 56.8568 47.8605 57.4675 47.2079C58.0869 46.5726 58.7432 45.7722 59.4635 44.9361C60.1789 44.0939 60.9029 43.1655 61.5875 42.2112C62.2808 41.2618 62.958 40.2989 63.5429 39.3644C64.1093 38.4187 64.688 37.5605 65.1054 36.7786C65.5352 36.0053 65.9156 35.365 66.1496 34.902C66.4008 34.4452 66.5436 34.1842 66.5436 34.1842L66.5547 34.1645C66.7259 33.8517 67.1186 33.7384 67.4302 33.9096C67.706 34.061 67.8267 34.3836 67.7343 34.6718C67.7343 34.6718 67.6407 34.9661 67.4757 35.4795C67.2923 35.9856 67.0534 36.7244 66.6618 37.5642C66.2814 38.4076 65.8233 39.3927 65.2335 40.3913C64.6388 41.3874 63.9714 42.4316 63.2437 43.4339C62.4864 44.414 61.6897 45.3622 60.9066 46.2179C60.1112 47.0626 59.3133 47.7965 58.6151 48.4036C57.928 49.0131 57.2742 49.481 56.8568 49.79C56.4209 50.0917 56.1709 50.2653 56.1709 50.2653C55.9025 50.4513 55.5331 50.3848 55.3472 50.1163C55.1858 49.8787 55.2179 49.5647 55.4099 49.3652Z" fill="#3E7BA8"/>
</svg>
