<svg width="362" height="299" viewBox="0 0 362 299" fill="none" xmlns="http://www.w3.org/2000/svg">
<path d="M146.541 47.6644C145.255 46.1979 143.963 44.6784 142.595 43.979C141.226 43.2796 139.431 43.1885 138.238 44.1575C137.521 44.74 137.11 45.6203 136.861 46.5081C135.863 50.0864 137.219 53.9651 139.408 56.9708C140.237 58.111 141.242 59.2044 142.568 59.6908C144.268 60.315 146.335 59.7412 147.468 58.3326" fill="#FCDDCD"/>
<path d="M146.319 47.8589C146.319 47.8589 145.963 47.4747 145.341 46.8024C144.712 46.1609 143.822 45.1549 142.554 44.4297C141.908 44.0837 141.15 43.8719 140.332 43.894C139.522 43.9174 138.723 44.2339 138.186 44.884C137.914 45.2078 137.698 45.6056 137.533 46.0402C137.453 46.252 137.375 46.4971 137.324 46.7039C137.274 46.949 137.194 47.2149 137.165 47.444C137.006 48.3761 137.003 49.4042 137.146 50.3881C137.418 52.3767 138.248 54.2828 139.272 55.8884C139.793 56.69 140.338 57.4448 140.932 58.0482C141.527 58.6515 142.187 59.1034 142.856 59.3214C144.212 59.7671 145.488 59.3842 146.197 58.9655C146.564 58.7549 146.815 58.5345 146.979 58.3806C147.134 58.2169 147.217 58.1282 147.217 58.1282L147.24 58.1036C147.362 57.9743 147.565 57.9681 147.696 58.09C147.821 58.2082 147.83 58.404 147.72 58.5333C147.72 58.5333 147.628 58.6417 147.456 58.8436C147.272 59.0357 146.989 59.3091 146.57 59.5775C146.153 59.8422 145.6 60.1057 144.92 60.2498C144.244 60.3914 143.429 60.4185 142.593 60.155C141.754 59.9038 140.96 59.3805 140.274 58.7192C139.582 58.0555 138.991 57.2712 138.441 56.4253C137.346 54.731 136.428 52.7116 136.126 50.5297C135.982 49.4362 135.988 48.3404 136.189 47.2383C136.375 46.2409 136.723 45.0946 137.451 44.2548C138.184 43.3658 139.334 42.9816 140.316 42.989C141.307 42.9829 142.236 43.2833 142.961 43.7007C143.697 44.1292 144.245 44.6488 144.706 45.113C145.165 45.5797 145.535 46.0058 145.836 46.3579C146.427 47.0635 146.766 47.4661 146.766 47.4661C146.871 47.5917 146.855 47.7776 146.729 47.8823C146.606 47.9882 146.425 47.9734 146.319 47.8589Z" fill="#373735"/>
<path d="M140.229 46.9736C140.229 46.9736 140.378 47.0241 140.639 47.1127C140.887 47.2063 141.293 47.3602 141.716 47.588C142.59 48.0215 143.658 48.7935 144.565 49.7342C145.456 50.691 146.17 51.8016 146.552 52.7017C146.949 53.5957 147.081 54.2323 147.081 54.2323C147.118 54.4084 147.006 54.5807 146.83 54.6177C146.682 54.6485 146.534 54.5721 146.47 54.4428C146.47 54.4428 146.403 54.3061 146.286 54.066C146.176 53.8235 145.993 53.491 145.77 53.097C145.323 52.3102 144.639 51.314 143.812 50.4422C143 49.5569 142.051 48.8046 141.294 48.3046C140.911 48.051 140.61 47.8589 140.362 47.7259C140.123 47.5893 139.986 47.5117 139.986 47.5117C139.843 47.4304 139.794 47.2494 139.875 47.1066C139.947 46.981 140.097 46.928 140.229 46.9736Z" fill="#373735"/>
<path d="M144.817 50.8646C144.817 50.8646 144.589 51.2365 144.334 51.7573C144.067 52.2917 143.76 53.0231 143.573 53.7866C143.365 54.5451 143.275 55.3306 143.243 55.9241C143.212 56.5189 143.221 56.9264 143.221 56.9264C143.225 57.1062 143.082 57.2552 142.901 57.2589C142.757 57.2614 142.632 57.1702 142.587 57.0422L142.583 57.0323C142.583 57.0323 142.434 56.6124 142.368 55.9488C142.288 55.2863 142.35 54.385 142.575 53.5206C142.821 52.6611 143.222 51.8558 143.625 51.3239C144.029 50.771 144.349 50.5038 144.349 50.5038L144.374 50.4829C144.499 50.3782 144.686 50.3942 144.791 50.5198C144.875 50.6196 144.881 50.7587 144.817 50.8646Z" fill="#373735"/>
<path d="M218.928 180.737L146.729 181.099L147.458 182.725C149.402 192.547 146.302 205.893 141.646 215.389C141.646 215.389 150.194 222.914 183.491 221.476C216.787 220.038 224.569 214.937 224.569 214.937C221.077 205.342 217.5 191.454 219.323 181.461" fill="#FCDDCD"/>
<path d="M218.928 180.737L146.729 181.099L147.458 182.725C149.402 192.547 146.302 205.893 141.646 215.389C141.646 215.389 150.194 222.914 183.491 221.476C216.787 220.038 224.569 214.937 224.569 214.937C221.077 205.342 217.5 191.454 219.323 181.461" stroke="#373735" stroke-width="0.8254" stroke-miterlimit="10" stroke-linecap="round" stroke-linejoin="round"/>
<path d="M226.109 59.1957C226.706 64.6468 231.478 68.9146 236.003 72.0311C238.941 74.0542 242.302 75.4973 244.913 77.928C247.523 80.3586 249.259 84.2668 247.776 87.504C246.63 90.0011 243.843 91.4233 241.104 91.7164C239.937 91.8407 238.719 91.8026 237.642 92.268C235.573 93.1607 234.695 95.536 233.703 97.5529C229.705 105.678 220.287 110.795 211.272 109.738C204.423 112.819 196.844 105.289 189.395 104.315C180.568 103.162 172.305 111.344 163.583 109.567C157.071 108.24 152.976 101.875 150.226 95.8413C142.155 78.125 139.755 60.0687 142.262 40.7714C142.262 40.7714 147.226 4.63184 189.784 8.8122C189.784 8.8122 220.478 7.8296 226.109 59.1957Z" fill="#3C3C3B"/>
<path d="M212.092 293.909C252.739 293.054 294.24 296.679 333.405 286.409C341.843 284.197 350.448 281.137 356.343 275.04C358.494 272.817 360.254 270.166 360.867 267.215C361.574 263.818 360.714 260.287 359.319 257.084C354.907 246.955 345.304 239.432 334.699 234.929C324.095 230.426 312.455 228.605 300.931 227.095C276.248 223.859 252.751 222.489 227.844 221.718L224.569 213.215C224.569 213.215 209.001 218.375 181.935 218.681C154.869 218.988 141.874 213.837 141.874 213.837L137.155 221.656C112.248 222.427 84.8695 223.859 60.1875 227.095C48.6648 228.606 37.0238 230.427 26.4196 234.929C15.8154 239.432 6.211 246.955 1.80038 257.084C0.405281 260.287 -0.454182 263.819 0.252601 267.215C0.867034 270.166 2.6266 272.817 4.7765 275.04C10.6721 281.137 19.2754 284.197 27.7137 286.409C66.8786 296.679 160.238 293.054 200.884 293.909H212.092Z" fill="#666496"/>
<path d="M244.41 131.371C265.683 168.663 293.79 194.103 322.477 215.779L323.19 216.226C325.308 217.72 327.662 215.932 330.04 214.855C332.417 213.781 334.85 212.507 337.46 212.601C340.068 212.694 342.804 214.832 342.384 217.372C341.376 218.436 339.646 218.169 338.192 217.947C336.738 217.726 334.868 217.857 334.31 219.203C333.734 220.593 335.14 222.035 336.577 222.524C338.078 223.035 340.096 222.821 340.787 221.405C341.092 220.779 341.067 220.05 341.272 219.386C341.476 218.722 342.091 218.057 342.775 218.213C343.028 218.271 343.242 218.431 343.433 218.604C344.952 219.967 345.45 222.321 344.611 224.18C343.774 226.04 341.662 227.264 339.611 227.08C341.4 227.495 343.15 228.075 344.828 228.81C345.959 229.305 347.254 230.288 346.876 231.454C344.221 232.214 341.204 231.572 339.116 229.804C340.563 230.543 342.009 231.283 343.456 232.021C344.066 232.333 344.747 232.738 344.849 233.408C345.038 234.64 343.267 235.149 342.008 235.016C339.979 234.802 337.989 234.244 336.153 233.372C337.484 233.695 338.73 234.349 339.742 235.256C340.038 235.522 340.329 235.835 340.39 236.225C340.501 236.927 339.837 237.517 339.181 237.82C337.408 238.637 335.382 238.086 333.432 238.004C317.329 237.342 312.702 225.228 312.702 225.228C275.926 210.633 238.499 178.148 224.571 145.482" fill="#FCDDCD"/>
<path d="M244.41 131.371C265.683 168.663 293.79 194.103 322.477 215.779L323.19 216.226C325.308 217.72 327.662 215.932 330.04 214.855C332.417 213.781 334.85 212.507 337.46 212.601C340.068 212.694 342.804 214.832 342.384 217.372C341.376 218.436 339.646 218.169 338.192 217.947C336.738 217.726 334.868 217.857 334.31 219.203C333.734 220.593 335.14 222.035 336.577 222.524C338.078 223.035 340.096 222.821 340.787 221.405C341.092 220.779 341.067 220.05 341.272 219.386C341.476 218.722 342.091 218.057 342.775 218.213C343.028 218.271 343.242 218.431 343.433 218.604C344.952 219.967 345.45 222.321 344.611 224.18C343.774 226.04 341.662 227.264 339.611 227.08C341.4 227.495 343.15 228.075 344.828 228.81C345.959 229.305 347.254 230.288 346.876 231.454C344.221 232.214 341.204 231.572 339.116 229.804C340.563 230.543 342.009 231.283 343.456 232.021C344.066 232.333 344.747 232.738 344.849 233.408C345.038 234.64 343.267 235.149 342.008 235.016C339.979 234.802 337.989 234.244 336.153 233.372C337.484 233.695 338.73 234.349 339.742 235.256C340.038 235.522 340.329 235.835 340.39 236.225C340.501 236.927 339.837 237.517 339.181 237.82C337.408 238.637 335.382 238.086 333.432 238.004C317.329 237.342 312.702 225.228 312.702 225.228C275.926 210.633 238.499 178.148 224.571 145.482" stroke="#373735" stroke-width="1.0445" stroke-miterlimit="10"/>
<path d="M118.289 131.371C97.0166 168.663 68.9091 194.103 40.2228 215.779L39.5099 216.226C37.392 217.72 35.0377 215.932 32.66 214.855C30.2823 213.781 27.8492 212.507 25.24 212.601C22.632 212.694 19.896 214.832 20.3159 217.372C21.3231 218.436 23.0531 218.169 24.5073 217.947C25.9615 217.726 27.8319 217.857 28.3897 219.203C28.966 220.593 27.5586 222.035 26.1228 222.524C24.6218 223.035 22.6037 222.821 21.9129 221.405C21.6076 220.779 21.631 220.05 21.4278 219.386C21.2234 218.722 20.609 218.057 19.9243 218.213C19.6719 218.271 19.4577 218.431 19.2668 218.604C17.7473 219.967 17.2499 222.321 18.0884 224.18C18.927 226.04 21.0375 227.264 23.0888 227.08C21.2997 227.495 19.55 228.075 17.8717 228.81C16.7401 229.305 15.4472 230.288 15.824 231.454C18.4787 232.214 21.4955 231.572 23.5826 229.804C22.1358 230.543 20.689 231.283 19.2422 232.021C18.6327 232.333 17.9517 232.738 17.8495 233.408C17.6612 234.64 19.4318 235.149 20.6902 235.016C22.7195 234.802 24.7093 234.244 26.544 233.372C25.2129 233.695 23.9668 234.349 22.9546 235.256C22.6591 235.522 22.3685 235.835 22.307 236.225C22.1961 236.927 22.8598 237.517 23.5161 237.82C25.2892 238.637 27.3148 238.086 29.2664 238.004C45.3698 237.342 49.9959 225.228 49.9959 225.228C86.772 210.633 124.199 178.148 138.127 145.482" fill="#FBD5C8"/>
<path d="M118.289 131.371C97.0166 168.663 68.9091 194.103 40.2228 215.779L39.5099 216.226C37.392 217.72 35.0377 215.932 32.66 214.855C30.2823 213.781 27.8492 212.507 25.24 212.601C22.632 212.694 19.896 214.832 20.3159 217.372C21.3231 218.436 23.0531 218.169 24.5073 217.947C25.9615 217.726 27.8319 217.857 28.3897 219.203C28.966 220.593 27.5586 222.035 26.1228 222.524C24.6218 223.035 22.6037 222.821 21.9129 221.405C21.6076 220.779 21.631 220.05 21.4278 219.386C21.2234 218.722 20.609 218.057 19.9243 218.213C19.6719 218.271 19.4577 218.431 19.2668 218.604C17.7473 219.967 17.2499 222.321 18.0884 224.18C18.927 226.04 21.0375 227.264 23.0888 227.08C21.2997 227.495 19.55 228.075 17.8717 228.81C16.7401 229.305 15.4472 230.288 15.824 231.454C18.4787 232.214 21.4955 231.572 23.5826 229.804C22.1358 230.543 20.689 231.283 19.2422 232.021C18.6327 232.333 17.9517 232.738 17.8495 233.408C17.6612 234.64 19.4318 235.149 20.6902 235.016C22.7195 234.802 24.7093 234.244 26.544 233.372C25.2129 233.695 23.9668 234.349 22.9546 235.256C22.6591 235.522 22.3685 235.835 22.307 236.225C22.1961 236.927 22.8598 237.517 23.5161 237.82C25.2892 238.637 27.3148 238.086 29.2664 238.004C45.3698 237.342 49.9959 225.228 49.9959 225.228C86.772 210.633 124.199 178.148 138.127 145.482" stroke="#373735" stroke-width="0.8318" stroke-miterlimit="10"/>
<path d="M166.247 95.5323C146.493 95.3045 135.815 102.178 117.202 130.474L116.986 130.711C119.339 134.066 122.734 136.921 126.003 139.104C130.11 141.846 134.625 143.91 139.119 145.961C137.436 149.76 137.284 154.07 138.517 158.036C139.389 160.842 140.984 163.472 141.187 166.403C141.308 168.14 140.959 173.572 140.375 175.225C139.542 177.584 138.228 180.045 137.014 182.234C136.842 182.545 136.664 182.871 136.641 183.226C136.589 184.013 137.33 184.668 138.105 184.826C138.879 184.983 139.676 184.779 140.448 184.612C147.975 182.984 155.75 184.86 163.368 185.998C164.423 186.156 165.493 186.296 166.571 186.409C177.89 187.596 189.173 182.481 200.154 185.465C203.841 186.466 207.679 185.756 211.258 184.422L212.114 184.257C215.913 183.859 219.699 183.806 223.426 184.613C224.199 184.78 224.995 184.985 225.771 184.827C226.545 184.669 227.286 184.013 227.235 183.228C227.211 182.872 227.034 182.548 226.862 182.235C225.649 180.046 224.334 177.586 223.5 175.226C222.916 173.572 222.567 168.141 222.689 166.404C222.893 163.473 224.486 160.843 225.358 158.037C226.591 154.07 226.438 149.761 224.756 145.963C229.249 143.911 233.766 141.848 237.871 139.105C241.14 136.922 244.535 134.067 246.888 130.713L246.672 130.475C228.06 102.179 217.382 95.307 197.627 95.5336" fill="#52B9A0"/>
<path d="M183.371 205.878C183.371 205.878 183.424 205.963 183.503 206.115C183.573 206.262 183.702 206.516 183.795 206.803C184.013 207.381 184.164 208.196 184.198 209.021C184.202 209.846 184.088 210.67 183.892 211.257C183.71 211.849 183.5 212.207 183.5 212.207C183.376 212.425 183.098 212.501 182.88 212.377C182.726 212.289 182.643 212.121 182.651 211.954C182.651 211.954 182.673 211.575 182.713 211.028C182.748 210.758 182.734 210.436 182.768 210.1C182.79 209.763 182.787 209.402 182.782 209.044C182.79 208.684 182.779 208.323 182.752 207.986C182.723 207.648 182.721 207.327 182.683 207.055C182.631 206.493 182.595 206.119 182.595 206.119C182.574 205.891 182.742 205.689 182.97 205.668C183.132 205.654 183.28 205.734 183.361 205.863L183.371 205.878Z" fill="#373735"/>
<path d="M190.935 83.778C193.268 94.8107 191.924 89.202 193.437 95.5273L197.626 95.5322C203.616 95.4633 208.772 96.0469 213.567 97.6834C213.567 97.6834 209.543 109.409 185.73 111.349C179.209 111.879 172.53 111.163 166.43 108.802C160.33 106.443 155.122 102.782 151.645 97.2561C151.645 97.2561 156.381 95.4399 166.248 95.531L170.065 95.5261C171.846 90.9837 171.812 88.0482 173.079 83.3384L190.935 83.778Z" fill="#FCDDCD"/>
<path d="M201.596 293.223C207.664 292.776 213.966 294.542 219.961 295.578C237.859 298.67 256.251 298.897 274.221 296.249C275.234 296.1 276.363 295.869 276.934 295.021C277.377 294.361 277.35 293.482 277.111 292.725C276.351 290.309 273.778 288.89 271.277 288.443C268.777 287.998 266.2 288.275 263.678 287.98C255.249 286.998 247.355 283.342 240.571 278.257C233.402 272.881 223.085 272.059 215.15 276.233C211.477 278.165 205.529 276.368 201.596 275.033V293.223Z" fill="#FCDDCD" stroke="#373735" stroke-width="1.0445" stroke-miterlimit="10"/>
<path d="M304.258 249.613C304.258 249.613 301.989 249.554 298.016 249.451C296.033 249.414 293.623 249.352 290.859 249.37C288.094 249.361 284.977 249.394 281.578 249.493C279.879 249.546 278.109 249.59 276.281 249.698C274.451 249.78 272.561 249.893 270.622 250.054C266.738 250.318 262.662 250.809 258.47 251.44C254.287 252.127 249.977 252.927 245.67 254.031C241.364 255.135 237.036 256.434 232.803 257.991L229.63 259.16L226.501 260.426L224.88 261.077L223.281 261.625C222.173 261.933 220.993 262.249 219.892 262.491C215.473 263.484 211.113 264.164 206.884 264.777C202.658 265.403 198.568 265.924 194.687 266.409C190.801 266.842 187.128 267.253 183.728 267.547C180.332 267.872 177.209 268.077 174.443 268.263C171.676 268.448 169.261 268.588 167.269 268.651C163.286 268.801 160.998 268.762 160.998 268.762L160.953 267.673C160.953 267.673 163.205 267.436 167.148 267.018C171.09 266.564 176.722 265.916 183.479 265.138C190.232 264.329 198.124 263.476 206.536 262.327C210.737 261.74 215.084 261.105 219.417 260.263C223.616 259.657 227.781 257.429 232.169 256.152C236.503 254.694 240.923 253.502 245.307 252.51C249.685 251.485 254.052 250.759 258.283 250.152C262.524 249.615 266.632 249.182 270.538 248.92C272.49 248.77 274.39 248.667 276.229 248.595C278.068 248.497 279.844 248.462 281.551 248.419C284.963 248.34 288.091 248.325 290.861 248.349C293.632 248.375 296.047 248.397 298.037 248.415C302.011 248.484 304.283 248.524 304.283 248.524L304.258 249.613Z" fill="#373735"/>
<path d="M56.8433 248.977C59.9031 248.945 62.963 248.913 66.0376 248.993C67.5743 249.005 69.1061 249.074 70.6391 249.125C72.1721 249.173 73.7051 249.229 75.2356 249.334C78.3004 249.488 81.3566 249.756 84.4127 250.027C87.464 250.347 90.514 250.686 93.5517 251.122C95.0748 251.309 96.5869 251.574 98.1027 251.808C99.6209 252.033 101.132 252.301 102.64 252.577C105.667 253.088 108.672 253.714 111.676 254.347L116.165 255.374L120.63 256.504C123.594 257.304 126.565 258.094 129.497 259.013C132.443 259.885 135.355 260.874 138.261 261.875L142.551 263.415C144.03 263.909 145.45 264.218 146.892 264.541C149.863 265.143 152.861 265.682 155.878 266.165L164.928 267.613L183.073 270.444C186.095 270.951 189.121 271.441 192.14 272.026C195.171 272.632 198.153 273.138 201.24 274.157L202.002 274.409L201.985 275.198L201.781 284.552C201.664 287.67 201.591 290.789 201.431 293.907H200.341C200.18 290.789 200.108 287.67 199.99 284.552L199.786 275.198L200.531 276.238C197.757 275.474 194.683 274.969 191.701 274.452L182.662 272.973L164.535 270.035C158.486 269.046 152.455 267.976 146.425 266.634C144.887 266.26 143.324 265.869 141.907 265.362L137.594 263.699C134.738 262.636 131.877 261.584 128.976 260.647C126.088 259.667 123.165 258.794 120.232 257.958L115.817 256.758L111.374 255.659C108.4 254.98 105.423 254.305 102.422 253.744C100.927 253.435 99.4226 253.181 97.9143 252.943C96.4071 252.702 94.9049 252.431 93.3903 252.237C90.3699 251.789 87.3371 251.437 84.3031 251.103C81.263 250.819 78.2228 250.536 75.1741 250.367C73.6509 250.255 72.1265 250.191 70.5997 250.135C69.0741 250.071 67.5484 250.005 66.0241 250.01C62.979 249.952 59.9179 250.009 56.8568 250.064L56.8433 248.977Z" fill="#373735"/>
<path d="M218.647 58.3719C219.78 59.7793 222.254 60.5994 223.953 59.9751C225.279 59.4888 226.284 58.3953 227.114 57.2551C229.302 54.2494 230.66 50.3707 229.66 46.7925C229.413 45.9047 229.002 45.0243 228.284 44.4419C227.091 43.4741 225.295 43.564 223.927 44.2634C222.558 44.9627 220.788 46.8418 219.502 48.3095" fill="#FCDDCD"/>
<path d="M218.853 58.1897C218.853 58.1897 218.945 58.287 219.117 58.4692C219.278 58.6195 219.546 58.8485 219.932 59.0751C220.316 59.3004 220.819 59.5233 221.422 59.6686C222.02 59.8114 222.734 59.8779 223.442 59.7215C224.148 59.5602 224.859 59.1194 225.495 58.5148C226.139 57.9016 226.695 57.153 227.247 56.3009C228.3 54.6509 229.172 52.6684 229.417 50.6084C229.556 49.584 229.551 48.5423 229.365 47.5486C229.174 46.5537 228.832 45.6019 228.212 44.9702C227.583 44.3299 226.72 44.1107 225.868 44.1526C225.022 44.2043 224.238 44.4887 223.616 44.9099C222.34 45.7841 221.392 46.7704 220.737 47.4304C220.093 48.1162 219.725 48.5078 219.725 48.5078L219.719 48.514C219.605 48.6346 219.416 48.6408 219.294 48.5275C219.176 48.4167 219.168 48.2332 219.273 48.1113C219.273 48.1113 219.63 47.7 220.254 46.9797C220.573 46.6251 220.966 46.1966 221.44 45.7238C221.92 45.2571 222.466 44.7264 223.174 44.2449C223.889 43.7499 224.806 43.3916 225.817 43.319C226.323 43.2833 226.858 43.3313 227.384 43.4889C227.648 43.5763 227.897 43.6724 228.158 43.8324C228.3 43.9125 228.393 43.9851 228.496 44.059C228.632 44.1612 228.723 44.2462 228.832 44.3496C229.655 45.1758 230.04 46.2926 230.266 47.3676C230.487 48.4659 230.512 49.6135 230.37 50.7328C230.058 52.9787 229.104 55.0412 227.956 56.7799C227.392 57.6184 226.763 58.4483 226.045 59.1058C225.327 59.7658 224.49 60.2805 223.605 60.4689C222.719 60.6561 221.91 60.528 221.243 60.3384C220.572 60.1439 220.025 59.8705 219.605 59.5984C219.185 59.325 218.895 59.0566 218.695 58.851C218.528 58.6564 218.438 58.553 218.438 58.553C218.338 58.4385 218.352 58.2649 218.466 58.1651C218.578 58.0691 218.745 58.0777 218.846 58.1836L218.853 58.1897Z" fill="#373735"/>
<path d="M219.854 48.8882C219.854 69.6829 203.443 84.6423 183.197 84.6423C162.953 84.6423 146.541 69.6829 146.541 48.8882C146.541 28.0936 162.952 11.2354 183.197 11.2354C203.441 11.2366 219.854 28.0936 219.854 48.8882Z" fill="#FCDDCD"/>
<path d="M220.22 48.9068C220.22 48.9068 220.179 49.8081 220.103 51.4975C220.076 51.9198 220.081 52.3902 220.021 52.911C219.945 53.4331 219.863 54.0032 219.773 54.6189C219.677 55.2333 219.598 55.9007 219.469 56.6013C219.295 57.2909 219.11 58.0235 218.914 58.7968C218.073 61.8591 216.723 65.5679 214.19 69.252C211.7 72.9288 208.176 76.6942 203.461 79.5311C198.785 82.3878 193.047 84.438 186.782 85.0155C185.997 85.0537 185.207 85.0906 184.413 85.1288L183.216 85.1854L182.002 85.1337C181.207 85.098 180.407 85.0623 179.604 85.0266C178.795 84.949 177.973 84.8123 177.15 84.7064C175.485 84.5488 173.893 84.044 172.243 83.6894C171.439 83.4394 170.64 83.1537 169.834 82.8853C169.432 82.7449 169.023 82.6205 168.626 82.4666L167.452 81.9421C164.275 80.6307 161.299 78.7209 158.581 76.4701C155.826 74.2438 153.471 71.4783 151.526 68.4418C151.072 67.6624 150.51 66.9396 150.143 66.1072L148.94 63.6618C148.304 61.9613 147.564 60.2793 147.18 58.489C146.647 56.7343 146.426 54.9132 146.149 53.1007C146.038 52.1919 146.037 51.2734 145.975 50.3585L145.906 48.9856C145.91 48.4696 145.945 48.067 145.962 47.6015C146.01 46.7002 146.037 45.8013 146.101 44.8975L146.511 42.1566C146.613 41.2331 146.871 40.3552 147.091 39.4674C147.34 38.5882 147.481 37.677 147.83 36.8299C148.917 33.3341 150.64 30.0933 152.606 27.0777C154.621 24.077 157.117 21.4727 159.792 19.1702C162.523 16.9156 165.552 15.1363 168.673 13.7006C169.477 13.3989 170.277 13.0985 171.074 12.7993C171.475 12.6564 171.865 12.4877 172.272 12.3683L173.498 12.0469C174.316 11.8437 175.121 11.5962 175.939 11.4349C176.764 11.3069 177.585 11.1801 178.401 11.0532C179.214 10.8944 180.035 10.8611 180.852 10.8279C181.679 10.7922 182.452 10.7368 183.309 10.7171C184.104 10.7602 184.893 10.802 185.677 10.8451L186.849 10.9079C187.241 10.9449 187.635 11.0249 188.025 11.0803C194.289 11.9693 199.909 14.3224 204.337 17.5633C208.788 20.777 212.12 24.657 214.458 28.4298C215.003 29.3988 215.614 30.2915 216.049 31.2359C216.489 32.1779 216.911 33.0854 217.317 33.9572C217.95 35.7709 218.644 37.4074 218.959 38.9773C219.151 39.7518 219.332 40.4845 219.503 41.174C219.608 41.8771 219.706 42.5346 219.797 43.1478C219.887 43.761 219.97 44.3274 220.046 44.8471C220.101 45.3691 220.101 45.8469 220.129 46.2729C220.209 47.9796 220.252 48.8895 220.252 48.8895L220.22 48.9068ZM219.454 48.8883C219.454 48.8883 219.408 47.9968 219.322 46.3247C219.294 45.9072 219.291 45.4393 219.236 44.9283C219.159 44.4198 219.076 43.8645 218.985 43.2648C218.894 42.6652 218.795 42.0212 218.689 41.3341C218.519 40.6605 218.337 39.9439 218.146 39.1879C217.833 37.6536 217.145 36.0578 216.522 34.286C216.121 33.4351 215.703 32.551 215.27 31.6324C214.842 30.7114 214.238 29.8433 213.705 28.8977C211.406 25.2234 208.137 21.4506 203.786 18.339C199.475 15.2003 193.943 12.9347 187.931 12.1036C187.554 12.0506 187.184 11.9743 186.799 11.9398L185.627 11.8819C184.842 11.8425 184.053 11.8031 183.259 11.7637C182.484 11.8031 181.706 11.8437 180.923 11.8831C180.13 11.9189 179.333 11.9533 178.545 12.1122C177.754 12.2378 176.958 12.3646 176.158 12.4914C175.365 12.6515 174.585 12.8965 173.794 13.0972L172.605 13.4137C172.213 13.5307 171.833 13.6981 171.445 13.8373C170.675 14.1303 169.899 14.4246 169.121 14.7201C166.104 16.1275 163.175 17.8625 160.537 20.0592C157.955 22.3039 155.547 24.8355 153.608 27.7513C151.717 30.6806 150.06 33.8242 149.024 37.2116C148.688 38.0317 148.559 38.9157 148.321 39.7678C148.112 40.6273 147.863 41.4831 147.774 42.3561L147.39 44.964C147.324 45.8567 147.293 46.763 147.242 47.6619C147.224 48.0978 147.187 48.5952 147.183 48.9794L147.247 50.308C147.304 51.1921 147.3 52.0836 147.405 52.9615C147.67 54.7125 147.873 56.4745 148.385 58.17C148.748 59.9025 149.461 61.5254 150.067 63.1705L151.222 65.5334C151.572 66.3399 152.115 67.0356 152.55 67.7904C154.417 70.7272 156.681 73.409 159.339 75.5687C161.962 77.7543 164.836 79.6149 167.913 80.8955L169.048 81.4089C169.433 81.5604 169.83 81.681 170.219 81.819C171.001 82.0825 171.78 82.346 172.555 82.607C174.151 82.953 175.713 83.4554 177.299 83.6069C178.091 83.7115 178.867 83.8482 179.658 83.927C180.463 83.9652 181.262 84.0033 182.056 84.0415L183.218 84.0957L184.383 84.044C185.158 84.0095 185.926 83.975 186.691 83.9418C192.791 83.3987 198.375 81.4225 202.929 78.6606C207.515 75.9086 210.974 72.2909 213.429 68.7324C215.927 65.1689 217.276 61.5636 218.124 58.5789C218.321 57.824 218.509 57.1099 218.685 56.4376C218.817 55.7579 218.897 55.1151 218.997 54.5204C219.091 53.9244 219.177 53.3728 219.256 52.8667C219.318 52.3569 219.318 51.8792 219.349 51.4593C219.44 49.7712 219.488 48.8698 219.488 48.8698L219.454 48.8883Z" fill="#373735"/>
<path d="M173.338 51.1453C173.338 51.1453 173.095 51.394 172.669 51.8287C172.204 52.2523 171.534 52.8704 170.633 53.4405C170.192 53.7471 169.686 54.0278 169.142 54.3135C168.585 54.5708 167.998 54.8442 167.366 55.0744C166.736 55.3047 166.068 55.5054 165.377 55.6556C164.69 55.8243 163.976 55.9487 163.256 56.0176C162.537 56.0989 161.808 56.1162 161.092 56.0866C160.375 56.0755 159.669 55.9893 158.997 55.8551C158.319 55.7418 157.682 55.5362 157.082 55.354C156.482 55.1336 155.923 54.8922 155.437 54.5942C154.451 54.0229 153.762 53.2829 153.421 52.6931C153.067 52.1069 152.987 51.7252 152.987 51.7252L152.982 51.7031C152.94 51.5048 153.067 51.3103 153.266 51.2684C153.403 51.2401 153.537 51.2906 153.622 51.3903C153.622 51.3903 153.839 51.6452 154.252 52.006C154.682 52.3544 155.316 52.7928 156.184 53.1856C157.044 53.5784 158.137 53.9539 159.34 54.2384C159.638 54.3209 159.947 54.3812 160.261 54.4317C160.574 54.4957 160.892 54.5573 161.217 54.5918C161.863 54.689 162.529 54.7297 163.198 54.7383C164.535 54.7703 165.886 54.6004 167.105 54.2581C167.719 54.1005 168.293 53.8801 168.826 53.6486C169.351 53.3974 169.842 53.1511 170.271 52.8765C170.709 52.6204 171.064 52.3126 171.396 52.0725C171.7 51.8016 171.965 51.575 172.173 51.3595C172.582 50.9089 172.816 50.6515 172.816 50.6515C172.949 50.505 173.175 50.4939 173.323 50.6269C173.47 50.7599 173.481 50.9864 173.348 51.1342C173.345 51.1379 173.342 51.1428 173.338 51.1453Z" fill="#373735"/>
<path d="M164.275 55.5202C164.275 55.5202 164.3 55.6667 164.322 55.8699C164.342 56.0755 164.336 56.3439 164.333 56.6111C164.312 56.8771 164.293 57.1431 164.251 57.345C164.21 57.547 164.166 57.6849 164.166 57.6849C164.119 57.8326 163.961 57.9151 163.814 57.8683C163.732 57.8425 163.67 57.7809 163.638 57.707C163.638 57.707 163.58 57.5679 163.534 57.3524C163.486 57.1382 163.478 56.8488 163.49 56.5594C163.521 56.2725 163.572 55.9869 163.647 55.7812C163.725 55.5707 163.796 55.4451 163.796 55.4451L163.8 55.4377C163.869 55.3146 164.026 55.2715 164.147 55.3417C164.219 55.3798 164.263 55.4488 164.275 55.5202Z" fill="#373735"/>
<path d="M159.537 55.45C159.537 55.45 159.534 55.5805 159.523 55.7492C159.508 55.9216 159.46 56.1371 159.418 56.3526C159.357 56.5631 159.303 56.7762 159.236 56.9338C159.169 57.0914 159.109 57.1997 159.109 57.1997C159.034 57.3389 158.86 57.3918 158.721 57.3167C158.653 57.281 158.605 57.217 158.583 57.1505C158.583 57.1505 158.544 57.0236 158.526 56.8316C158.508 56.6395 158.541 56.3883 158.599 56.142C158.675 55.9007 158.775 55.668 158.886 55.5091C158.999 55.3466 159.092 55.2616 159.092 55.2616L159.103 55.2518C159.207 55.1545 159.371 55.1606 159.468 55.2665C159.516 55.3183 159.539 55.3848 159.537 55.45Z" fill="#373735"/>
<path d="M156.038 54.2138C156.038 54.2138 156.041 54.3332 156.012 54.5154C155.982 54.694 155.899 54.9131 155.798 55.1249C155.681 55.3281 155.546 55.5202 155.413 55.6421C155.282 55.7652 155.175 55.8293 155.175 55.8293C155.038 55.9118 154.861 55.8674 154.778 55.7308C154.741 55.668 154.73 55.5941 154.742 55.5276C154.742 55.5276 154.763 55.4106 154.814 55.253C154.864 55.0954 154.962 54.907 155.059 54.7186C155.172 54.5401 155.285 54.359 155.395 54.2335C155.505 54.1115 155.593 54.0254 155.593 54.0254C155.697 53.9244 155.863 53.9268 155.964 54.0315C156.011 54.0808 156.035 54.1423 156.038 54.2051V54.2138Z" fill="#373735"/>
<path d="M154.087 52.6709C154.087 52.6709 154.048 52.7755 153.972 52.9159C153.894 53.0538 153.764 53.209 153.626 53.3567C153.475 53.4922 153.319 53.6202 153.179 53.6916C153.04 53.7643 152.931 53.7976 152.931 53.7976C152.775 53.8443 152.611 53.7569 152.563 53.6005C152.543 53.5365 152.547 53.4725 152.568 53.4146C152.568 53.4146 152.606 53.3087 152.686 53.1733C152.765 53.0366 152.902 52.8876 153.044 52.7448C153.2 52.6155 153.361 52.4923 153.504 52.4222C153.648 52.3532 153.754 52.3199 153.754 52.3199C153.895 52.2756 154.047 52.3544 154.091 52.496C154.111 52.5551 154.108 52.6167 154.087 52.6709Z" fill="#373735"/>
<path d="M153.179 46.896C153.179 46.896 153.408 46.7039 153.847 46.3813C154.29 46.0562 154.928 45.6154 155.759 45.1869C157.411 44.3151 159.829 43.5295 162.362 43.4606C163.588 43.4261 164.868 43.5541 166.007 43.7918C167.155 44.027 168.188 44.4038 169.045 44.7744C169.904 45.1487 170.571 45.5563 171.027 45.8493C171.484 46.1436 171.733 46.3283 171.733 46.3283C171.852 46.4121 171.88 46.5771 171.796 46.6965C171.715 46.8098 171.556 46.8381 171.439 46.7667C171.439 46.7667 171.187 46.6054 170.727 46.353C170.273 46.0931 169.597 45.7705 168.77 45.4356C167.94 45.1044 166.937 44.8101 165.845 44.5885C164.743 44.3705 163.582 44.272 162.37 44.3053C161.202 44.3336 160.009 44.506 158.933 44.7842C157.853 45.0613 156.87 45.4196 156.059 45.7976C155.25 46.1769 154.591 46.545 154.157 46.8258C153.715 47.1041 153.464 47.2863 153.464 47.2863C153.356 47.3651 153.206 47.3405 153.127 47.2321C153.052 47.1287 153.07 46.9871 153.166 46.9058L153.179 46.896Z" fill="#373735"/>
<path d="M194.085 50.6528C194.085 50.6528 194.319 50.9101 194.728 51.3608C194.934 51.575 195.199 51.8028 195.505 52.0737C195.838 52.3126 196.192 52.6204 196.63 52.8778C197.058 53.1523 197.55 53.3986 198.074 53.6498C198.607 53.8813 199.181 54.1005 199.796 54.2593C201.015 54.6016 202.366 54.7716 203.703 54.7395C204.37 54.7309 205.037 54.6915 205.683 54.593C206.008 54.5585 206.325 54.4982 206.638 54.4329C206.953 54.3824 207.261 54.3221 207.559 54.2396C208.762 53.9539 209.856 53.5796 210.715 53.1868C211.584 52.794 212.217 52.3544 212.647 52.0072C213.061 51.6464 213.278 51.3915 213.278 51.3915C213.409 51.2364 213.641 51.2179 213.795 51.3497C213.901 51.4396 213.942 51.5775 213.917 51.7043L213.912 51.7265C213.912 51.7265 213.832 52.1094 213.477 52.6943C213.136 53.2841 212.448 54.0241 211.461 54.5955C210.975 54.8934 210.416 55.1348 209.816 55.3552C209.217 55.5374 208.579 55.7418 207.902 55.8563C207.229 55.9906 206.522 56.0755 205.806 56.0878C205.09 56.1186 204.361 56.1002 203.642 56.0189C202.922 55.9499 202.209 55.8243 201.521 55.6569C200.83 55.5066 200.161 55.3059 199.532 55.0757C198.901 54.8467 198.313 54.5733 197.757 54.3147C197.212 54.0291 196.706 53.7471 196.265 53.4417C195.364 52.8716 194.694 52.2535 194.229 51.8299C193.803 51.3952 193.56 51.1465 193.56 51.1465C193.422 51.0049 193.425 50.7771 193.566 50.6392C193.708 50.5001 193.936 50.5025 194.074 50.6454C194.079 50.6466 194.082 50.6503 194.085 50.6528Z" fill="#373735"/>
<path d="M203.103 55.4451C203.103 55.4451 203.174 55.5719 203.252 55.7813C203.327 55.9881 203.379 56.2726 203.41 56.5595C203.422 56.8476 203.412 57.137 203.365 57.3524C203.32 57.5667 203.262 57.7071 203.262 57.7071C203.203 57.8499 203.039 57.9189 202.896 57.8598C202.817 57.8277 202.759 57.76 202.735 57.6849C202.735 57.6849 202.69 57.547 202.65 57.3451C202.608 57.1431 202.588 56.8771 202.567 56.6112C202.564 56.344 202.559 56.0768 202.578 55.8699C202.601 55.6668 202.625 55.5202 202.625 55.5202C202.649 55.3811 202.78 55.2875 202.919 55.3109C202.998 55.3244 203.061 55.3712 203.098 55.4353L203.103 55.4451Z" fill="#373735"/>
<path d="M207.809 55.2617C207.809 55.2617 207.901 55.3466 208.015 55.5092C208.126 55.6668 208.225 55.9007 208.302 56.1421C208.36 56.3883 208.393 56.6395 208.374 56.8316C208.358 57.0237 208.319 57.1505 208.319 57.1505C208.272 57.3007 208.111 57.3857 207.961 57.3377C207.888 57.3155 207.829 57.2613 207.794 57.1998C207.794 57.1998 207.734 57.0914 207.668 56.9338C207.6 56.7762 207.546 56.5632 207.485 56.3526C207.443 56.1371 207.395 55.9217 207.381 55.7493C207.37 55.5806 207.366 55.4501 207.366 55.4501C207.361 55.3072 207.473 55.1878 207.617 55.1829C207.687 55.1804 207.753 55.2075 207.801 55.2506L207.809 55.2617Z" fill="#373735"/>
<path d="M211.309 54.0242C211.309 54.0242 211.397 54.1104 211.507 54.2323C211.617 54.3579 211.73 54.5389 211.843 54.7174C211.94 54.9058 212.038 55.093 212.088 55.2518C212.139 55.4095 212.16 55.5264 212.16 55.5264C212.189 55.6828 212.087 55.8343 211.931 55.865C211.859 55.8786 211.785 55.8626 211.727 55.8293C211.727 55.8293 211.62 55.7641 211.488 55.6422C211.355 55.5203 211.221 55.3282 211.104 55.125C211.003 54.9132 210.92 54.694 210.89 54.5155C210.86 54.3345 210.864 54.2138 210.864 54.2138V54.204C210.869 54.0599 210.99 53.9454 211.135 53.9503C211.202 53.9515 211.263 53.9799 211.309 54.0242Z" fill="#373735"/>
<path d="M213.146 52.32C213.146 52.32 213.253 52.3532 213.396 52.4222C213.539 52.4924 213.7 52.6143 213.855 52.7448C213.998 52.8876 214.135 53.0366 214.213 53.1733C214.293 53.3087 214.332 53.4146 214.332 53.4146C214.387 53.5673 214.308 53.7372 214.154 53.7926C214.092 53.8148 214.028 53.816 213.968 53.7976C213.968 53.7976 213.86 53.7643 213.721 53.6917C213.581 53.6202 213.424 53.491 213.274 53.3568C213.136 53.209 213.006 53.0538 212.928 52.9159C212.852 52.7768 212.812 52.6709 212.812 52.6709C212.76 52.5318 212.831 52.3766 212.97 52.3249C213.029 52.3027 213.09 52.3027 213.146 52.32Z" fill="#373735"/>
<path d="M213.436 47.2851C213.436 47.2851 213.185 47.1029 212.743 46.8246C212.31 46.5426 211.65 46.1757 210.842 45.7964C210.031 45.4184 209.048 45.0601 207.968 44.7831C206.893 44.5035 205.699 44.3312 204.53 44.3041C203.319 44.2696 202.157 44.3693 201.055 44.5873C199.964 44.8077 198.962 45.1032 198.131 45.4344C197.302 45.7693 196.627 46.0919 196.173 46.3518C195.715 46.6042 195.461 46.7655 195.461 46.7655C195.338 46.8443 195.176 46.8074 195.097 46.6855C195.022 46.5673 195.056 46.4096 195.167 46.3284C195.167 46.3284 195.417 46.1437 195.874 45.8494C196.331 45.5563 196.998 45.1488 197.855 44.7744C198.712 44.405 199.745 44.0282 200.894 43.7918C202.032 43.553 203.311 43.4261 204.539 43.4606C207.07 43.5308 209.489 44.3151 211.141 45.1869C211.974 45.6167 212.611 46.0575 213.053 46.3813C213.493 46.7039 213.722 46.896 213.722 46.896L213.733 46.9059C213.835 46.9921 213.849 47.1435 213.763 47.2457C213.681 47.343 213.539 47.359 213.436 47.2851Z" fill="#373735"/>
<path d="M153.864 75.0577C147.62 67.4346 144.969 57.004 146.819 47.3356C148.668 37.6672 154.984 28.942 163.604 24.1447C167.479 21.9887 171.245 19.3315 175.569 18.3365C184.521 16.2753 185.534 11.877 184.401 8.183C183.197 3.98909 178.612 4.11961 175.509 4.12084C171.585 4.12084 167.74 5.31032 164.182 6.95907C157.205 10.1925 152.152 13.8065 147.469 21.6008C147.469 21.6008 132.241 51.3534 153.864 75.0577Z" fill="#3C3C3B"/>
<path d="M184.469 66.8989C184.469 66.8989 184.34 66.9408 184.115 67.0147C183.903 67.075 183.505 67.1797 183.084 67.2105C182.221 67.3188 181.044 67.192 179.947 66.7955C178.861 66.3719 177.888 65.691 177.312 65.0347C176.721 64.3932 176.471 63.8662 176.471 63.8662C176.375 63.663 176.461 63.4204 176.664 63.3244C176.822 63.2505 177.004 63.2875 177.122 63.4007C177.122 63.4007 177.214 63.4894 177.374 63.6445C177.526 63.8046 177.768 64.0078 178.055 64.2454C178.334 64.4954 178.713 64.7146 179.097 64.9695C179.494 65.2108 179.943 65.4189 180.401 65.5999C180.859 65.7821 181.336 65.9237 181.791 66.0136C182.247 66.0936 182.679 66.1774 183.055 66.1811C183.44 66.1995 183.712 66.2155 183.962 66.1934C184.2 66.1835 184.335 66.1774 184.335 66.1774C184.54 66.1688 184.712 66.3264 184.722 66.5308C184.732 66.7007 184.623 66.8485 184.469 66.8989Z" fill="#373735"/>
<path d="M152.103 41.4843C153.931 39.9365 156.363 38.0834 158.475 36.9518C160.586 35.8202 162.989 35.1085 165.376 35.3289C165.643 35.3535 165.913 35.3917 166.156 35.505C166.386 35.6133 166.588 35.7894 166.837 35.8436C167.3 35.9433 167.728 35.5948 168.074 35.271C168.347 35.9162 169.388 36.0344 169.8 35.4668C169.972 35.9137 170.3 36.2992 170.714 36.5405C170.896 36.011 171.407 35.6108 171.965 35.5591C172.202 36.9025 172.162 38.2927 171.851 39.62C170.858 40.1692 169.491 39.9267 168.382 39.6841C162.987 38.5045 157.376 39.8429 152.103 41.4843Z" fill="#3C3C3B"/>
<path d="M214.455 41.4843C212.626 39.9365 210.194 38.0834 208.083 36.9518C205.97 35.8202 203.569 35.1085 201.181 35.3289C200.914 35.3535 200.643 35.3917 200.402 35.505C200.171 35.6133 199.969 35.7894 199.721 35.8436C199.258 35.9433 198.829 35.5948 198.483 35.271C198.21 35.9162 197.169 36.0344 196.757 35.4668C196.586 35.9137 196.257 36.2992 195.843 36.5405C195.661 36.011 195.15 35.6108 194.592 35.5591C194.356 36.9025 194.395 38.2927 194.707 39.62C195.699 40.1692 197.066 39.9267 198.175 39.6841C203.57 38.5045 209.182 39.8429 214.455 41.4843Z" fill="#3C3C3B"/>
<path d="M226.528 47.7801C226.528 47.7801 225.958 48.0719 225.213 48.5669C224.452 49.0643 223.499 49.8167 222.684 50.7045C221.854 51.5799 221.17 52.5798 220.725 53.3703C220.503 53.7656 220.322 54.1017 220.212 54.3443C220.097 54.5856 220.03 54.7235 220.03 54.7235C219.957 54.8737 219.776 54.9365 219.626 54.8651C219.498 54.8036 219.434 54.6607 219.462 54.5277C219.462 54.5277 219.599 53.8924 219.998 53.0034C220.382 52.1069 221.095 51.0012 221.983 50.0469C222.887 49.1074 223.951 48.3366 224.821 47.9007C225.242 47.6717 225.645 47.5165 225.894 47.4217C226.153 47.3306 226.302 47.2789 226.302 47.2789L226.312 47.2752C226.456 47.2247 226.613 47.3011 226.663 47.4451C226.708 47.5756 226.648 47.7185 226.528 47.7801Z" fill="#373735"/>
<path d="M222.157 50.8018C222.157 50.8018 222.474 51.0727 222.872 51.6243C223.27 52.1562 223.668 52.9591 223.913 53.8148C224.137 54.6755 224.201 55.5719 224.124 56.2332C224.062 56.8956 223.917 57.3143 223.917 57.3143L223.914 57.3241C223.86 57.4817 223.687 57.5667 223.528 57.5125C223.399 57.4682 223.32 57.3463 223.324 57.217C223.324 57.217 223.336 56.8082 223.309 56.2122C223.282 55.6163 223.192 54.827 222.984 54.0648C222.793 53.2977 222.484 52.5638 222.212 52.0294C221.952 51.5073 221.721 51.1391 221.721 51.1391C221.64 51.0099 221.679 50.8399 221.808 50.7587C221.913 50.6934 222.045 50.7057 222.133 50.7821L222.157 50.8018Z" fill="#373735"/>
<path d="M226.147 43.3054C226.594 30.5932 221.915 17.7677 213.552 8.78266C209.93 4.89166 205.534 1.64589 200.546 0.41702C195.558 -0.811847 188.587 0.652207 185.586 5.11454C183.46 8.27537 183.174 12.6515 184.522 16.2753C185.871 19.8979 188.711 22.757 192.013 24.3676C196.043 26.3328 200.852 26.6456 204.221 29.7337C207.375 32.6249 208.532 37.2978 211.088 40.8083C213.562 44.2055 216.985 46.3715 220.984 46.6965C220.984 46.6965 221.443 45.1537 223.929 44.2647C226.412 43.3744 226.147 43.3054 226.147 43.3054Z" fill="#3C3C3B"/>
<path d="M183.636 46.0279C184.224 50.0408 184.579 54.0894 184.697 58.143C184.701 58.276 184.702 58.4176 184.629 58.5296C184.543 58.6614 184.377 58.7131 184.223 58.7513C183.399 58.952 182.54 59.0111 181.696 58.9249" stroke="#373735" stroke-width="0.7713" stroke-miterlimit="10" stroke-linecap="round" stroke-linejoin="round"/>
<path d="M188.114 86.4365C185.5 87.0275 182.785 86.9192 180.108 86.7936C178.634 86.7246 177.122 86.6421 175.776 86.0412C179.56 86.9807 183.557 87.0571 187.374 86.2604C186.71 86.8281 185.784 86.9561 184.914 87.0251C182.449 87.2209 179.961 87.1248 177.518 86.7419C180.913 87.0214 184.322 87.131 187.727 87.0731C184.579 87.4474 181.342 87.8156 178.274 87.0165C181.307 87.3698 184.416 87.7208 187.383 86.998C183.803 87.7035 180.013 88.3955 176.578 87.1691C179.62 87.9276 182.844 87.9535 185.898 87.2418C183.371 87.9978 180.669 87.8291 178.039 87.621C179.651 88.0902 183.855 88.2022 185.946 87.6395" stroke="#E89B8D" stroke-width="0.7157" stroke-miterlimit="10" stroke-linecap="round" stroke-linejoin="round"/>
<path d="M222.611 120.044C227.577 120.044 227.584 112.328 222.611 112.328C217.645 112.328 217.638 120.044 222.611 120.044Z" fill="white"/>
<path d="M206.937 141.531C211.903 141.531 211.911 133.814 206.937 133.814C201.971 133.814 201.964 141.531 206.937 141.531Z" fill="white"/>
<path d="M191.264 128.835C196.23 128.835 196.237 121.118 191.264 121.118C186.298 121.118 186.291 128.835 191.264 128.835Z" fill="white"/>
<path d="M166.774 145.438C171.74 145.438 171.747 137.721 166.774 137.721C161.808 137.721 161.801 145.438 166.774 145.438Z" fill="white"/>
<path d="M152.08 123.951C157.046 123.951 157.054 116.235 152.08 116.235C147.115 116.235 147.106 123.951 152.08 123.951Z" fill="white"/>
<path d="M154.039 165.947C159.005 165.947 159.013 158.23 154.039 158.23C149.074 158.23 149.065 165.947 154.039 165.947Z" fill="white"/>
<path d="M188.325 161.065C193.291 161.065 193.298 153.348 188.325 153.348C183.36 153.348 183.351 161.065 188.325 161.065Z" fill="white"/>
<path d="M209.877 174.737C214.843 174.737 214.85 167.021 209.877 167.021C204.911 167.021 204.902 174.737 209.877 174.737Z" fill="white"/>
<path d="M130.529 132.741C135.494 132.741 135.502 125.024 130.529 125.024C125.564 125.024 125.555 132.741 130.529 132.741Z" fill="white"/>
<path d="M220.095 63.8748C220.095 63.8748 220.195 64.3181 220.369 65.0951C220.446 65.4866 220.569 65.9496 220.732 66.4729C220.88 67 221.062 67.5922 221.293 68.2301C221.503 68.874 221.772 69.5562 222.065 70.2741C222.34 70.9993 222.712 71.7307 223.079 72.4917C223.48 73.2366 223.873 74.0161 224.343 74.7684C224.789 75.5355 225.311 76.2694 225.809 77.0168C226.349 77.7359 226.856 78.4747 227.427 79.1507C227.971 79.8452 228.55 80.4916 229.088 81.1356C229.66 81.7488 230.192 82.362 230.749 82.8915C231.281 83.4456 231.798 83.9566 232.284 84.4196C232.763 84.8912 233.208 85.3172 233.615 85.6817C234.009 86.0634 234.359 86.3885 234.652 86.6532C235.238 87.1814 235.562 87.5065 235.562 87.5065L235.572 87.5164C235.679 87.6235 235.679 87.7971 235.571 87.9042C235.482 87.9917 235.349 88.0077 235.246 87.951C235.246 87.951 234.842 87.7306 234.156 87.3046C233.465 86.8872 232.514 86.2247 231.469 85.316C230.928 84.8801 230.397 84.3506 229.83 83.7928C229.266 83.2338 228.728 82.5898 228.152 81.9458C227.605 81.2748 227.026 80.5926 226.519 79.8378C225.979 79.1076 225.493 78.3233 224.996 77.55C224.058 75.964 223.207 74.3362 222.493 72.7724C222.165 71.9782 221.817 71.2234 221.538 70.4871C221.251 69.7544 220.988 69.0587 220.785 68.4024C220.343 67.1071 220.066 65.978 219.865 65.2133C219.674 64.4413 219.566 63.9992 219.566 63.9992C219.53 63.8527 219.619 63.7062 219.765 63.6692C219.912 63.6335 220.058 63.7222 220.095 63.8687C220.095 63.8712 220.095 63.8748 220.095 63.8748Z" fill="#222221"/>
<path d="M215.039 73.2835C215.039 73.2835 215.133 73.7046 215.297 74.4409C215.454 75.1809 215.736 76.2079 216.117 77.4392C216.491 78.6705 216.97 80.0952 217.587 81.5801C218.203 83.0664 218.938 84.6154 219.743 86.125C220.548 87.6358 221.436 89.0949 222.259 90.4654C223.114 91.8162 223.939 93.0586 224.649 94.1237C225.355 95.1962 225.944 96.0889 226.356 96.7144C226.771 97.3412 226.991 97.7179 226.991 97.7179L226.994 97.7253C227.071 97.8571 227.026 98.0246 226.896 98.1009C226.79 98.1625 226.658 98.1452 226.572 98.0664C226.572 98.0664 226.249 97.7721 225.717 97.2254C225.177 96.6849 224.449 95.871 223.664 94.8256C222.852 93.7986 222.036 92.507 221.2 91.1033C220.361 89.6995 219.596 88.1308 218.87 86.551C218.177 84.9552 217.534 83.341 216.98 81.8129C216.46 80.2725 215.946 78.8466 215.602 77.5919C215.23 76.3495 214.983 75.2844 214.792 74.5579C214.611 73.8252 214.507 73.4066 214.507 73.4066C214.472 73.26 214.56 73.1135 214.707 73.0766C214.853 73.0409 215 73.1295 215.037 73.2761C215.038 73.2785 215.039 73.2835 215.039 73.2835Z" fill="#222221"/>
<path d="M205.425 80.7809C205.425 80.7809 205.375 81.5973 205.485 82.7892C205.598 83.9873 205.914 85.572 206.48 87.0656C207.026 88.5666 207.702 89.9876 208.153 91.0847C208.614 92.1744 208.821 92.9871 208.821 92.9871C208.861 93.1398 208.769 93.2949 208.618 93.3343C208.523 93.359 208.426 93.3307 208.357 93.2715C208.357 93.2715 208.197 93.1299 207.953 92.8541C207.699 92.5845 207.38 92.1658 207.069 91.624C206.42 90.5515 205.87 88.9533 205.543 87.3267C205.24 85.6915 205.045 84.06 204.978 82.8311C204.894 81.5961 204.88 80.7871 204.88 80.7871V80.7699C204.877 80.6196 204.997 80.4953 205.147 80.4916C205.297 80.4891 205.421 80.6086 205.424 80.7588C205.426 80.7674 205.426 80.7748 205.425 80.7809Z" fill="#222221"/>
<path d="M152.034 74.0049C152.034 74.0049 152.077 74.2992 152.152 74.8151C152.219 75.3348 152.368 76.0514 152.565 76.9195C152.764 77.7851 153.004 78.7948 153.354 79.8476C153.695 80.9041 154.113 82.011 154.58 83.0946C155.505 85.2691 156.577 87.3562 157.339 88.9471C158.108 90.533 158.523 91.6696 158.523 91.6696C158.576 91.8136 158.502 91.9737 158.358 92.0267C158.251 92.0661 158.135 92.0353 158.06 91.9565C158.06 91.9565 157.849 91.7348 157.517 91.3211C157.176 90.9135 156.732 90.2991 156.272 89.5184C155.792 88.7489 155.342 87.7897 154.888 86.7541C154.424 85.7223 154.038 84.5746 153.666 83.4295C152.974 81.1195 152.403 78.7923 152.04 77.0315C151.695 75.2621 151.495 74.0911 151.495 74.0911C151.468 73.9433 151.567 73.8018 151.716 73.7747C151.864 73.7476 152.005 73.8461 152.032 73.9951C152.032 73.9975 152.034 74.0049 152.034 74.0049Z" fill="#222221"/>
<path d="M163.345 82.9617C163.345 82.9617 163.426 83.4924 163.664 84.2374C163.907 84.986 164.327 85.9563 164.899 86.8367C165.449 87.7282 166.038 88.568 166.386 89.2624C166.748 89.9471 166.86 90.5184 166.86 90.5184C166.892 90.6822 166.786 90.841 166.622 90.8743C166.553 90.8878 166.483 90.8755 166.425 90.8472C166.425 90.8472 165.887 90.5763 165.373 89.9274C164.839 89.2932 164.364 88.286 164.016 87.248C163.689 86.1989 163.38 85.1658 163.176 84.3839C162.959 83.6082 162.814 83.0898 162.814 83.0898L162.81 83.0763C162.77 82.931 162.855 82.7807 163 82.7401C163.145 82.6995 163.295 82.7844 163.336 82.9297C163.341 82.9396 163.343 82.9519 163.345 82.9617Z" fill="#222221"/>
<path d="M356.78 263.428C356.78 263.428 356.794 263.594 356.817 263.883C356.83 264.163 356.854 264.622 356.812 265.128C356.766 266.159 356.485 267.52 355.993 268.811C355.475 270.092 354.752 271.281 354.08 272.066C353.421 272.861 352.884 273.292 352.884 273.292C352.711 273.432 352.456 273.406 352.315 273.233C352.2 273.09 352.198 272.889 352.299 272.745C352.299 272.745 352.393 272.614 352.556 272.383C352.726 272.16 352.942 271.822 353.204 271.424C353.478 271.032 353.729 270.535 354.026 270.022C354.309 269.499 354.568 268.922 354.804 268.337C355.045 267.753 355.252 267.155 355.411 266.582C355.562 266.01 355.715 265.472 355.79 265C355.88 264.524 355.95 264.157 355.982 263.86C356.023 263.572 356.046 263.407 356.046 263.407C356.075 263.205 356.262 263.065 356.464 263.093C356.639 263.116 356.767 263.259 356.78 263.428Z" fill="#373735"/>
<path d="M353.91 263.864C353.91 263.864 353.942 263.968 353.996 264.152C354.039 264.319 354.116 264.66 354.123 265.003C354.18 265.714 354.011 266.671 353.616 267.542C353.196 268.4 352.561 269.141 351.972 269.548C351.393 269.969 350.938 270.112 350.938 270.112C350.721 270.178 350.492 270.057 350.425 269.842C350.376 269.684 350.43 269.518 350.545 269.413C350.545 269.413 350.62 269.346 350.751 269.227C350.886 269.119 351.057 268.937 351.26 268.729C351.473 268.529 351.663 268.242 351.888 267.962C352.102 267.67 352.291 267.334 352.461 266.988C352.634 266.644 352.777 266.285 352.876 265.935C352.967 265.586 353.065 265.255 353.093 264.963C353.132 264.66 353.169 264.461 353.168 264.255C353.176 264.064 353.181 263.955 353.181 263.955C353.191 263.749 353.365 263.59 353.57 263.6C353.733 263.608 353.866 263.717 353.91 263.864Z" fill="#373735"/>
<path d="M4.63489 267.055C4.63489 267.055 5.01536 267.707 5.60148 268.606C5.88468 269.07 6.26394 269.578 6.65427 270.13C7.04953 270.678 7.49773 271.243 7.96933 271.787C8.89283 272.893 9.92468 273.903 10.7263 274.635C11.5291 275.367 12.0894 275.838 12.0894 275.838C12.2593 275.981 12.2814 276.236 12.1374 276.406C12.0142 276.553 11.8086 276.588 11.6461 276.505L11.6362 276.5C11.6362 276.5 10.959 276.151 10.038 275.475C9.10708 274.813 7.98041 273.775 6.99042 272.613C6.02137 271.434 5.19637 270.145 4.70384 269.115C4.19407 268.08 3.97243 267.373 3.97243 267.373L3.96505 267.35C3.90471 267.156 4.01184 266.949 4.20639 266.889C4.37508 266.837 4.55116 266.91 4.63489 267.055Z" fill="#373735"/>
<path d="M8.41626 267.06C8.41626 267.06 8.68099 267.479 9.06763 268.024C9.25356 268.312 9.50968 268.622 9.76703 268.959C10.0268 269.295 10.3236 269.637 10.6363 269.962C11.2434 270.632 11.928 271.226 12.4562 271.66C12.998 272.091 13.3588 272.378 13.3588 272.378C13.5349 272.519 13.5644 272.775 13.4241 272.951C13.3157 273.086 13.1359 273.133 12.9796 273.085C12.9796 273.085 12.4993 272.932 11.8443 272.558C11.1818 272.197 10.3839 271.567 9.69438 270.832C9.02454 270.077 8.4729 269.226 8.17123 268.535C8.00992 268.203 7.90525 267.878 7.84123 267.687C7.78335 267.484 7.75011 267.367 7.75011 267.367L7.74765 267.359C7.69101 267.162 7.80552 266.958 8.0013 266.901C8.16384 266.856 8.3313 266.926 8.41626 267.06Z" fill="#373735"/>
<path d="M196.795 281.002C196.795 281.002 196.878 281.71 196.944 282.772C197.015 283.833 197.049 285.249 197.07 286.664C197.061 288.08 197.04 289.495 196.972 290.556C196.913 291.618 196.83 292.326 196.83 292.326C196.804 292.547 196.603 292.705 196.381 292.679C196.193 292.657 196.049 292.507 196.028 292.326C196.028 292.326 195.944 291.618 195.885 290.556C195.817 289.495 195.795 288.079 195.788 286.664C195.808 285.248 195.841 283.833 195.913 282.772C195.98 281.71 196.062 281.002 196.062 281.002C196.086 280.799 196.269 280.655 196.472 280.679C196.645 280.698 196.777 280.836 196.795 281.002Z" fill="#373735"/>
<path d="M194.173 284.467C194.173 284.467 194.274 284.826 194.368 285.367C194.467 285.908 194.537 286.632 194.593 287.357C194.622 288.084 194.636 288.81 194.596 289.358C194.565 289.906 194.499 290.273 194.499 290.273C194.459 290.497 194.245 290.645 194.022 290.605C193.862 290.577 193.74 290.459 193.698 290.312C193.698 290.312 193.597 289.954 193.511 289.412C193.416 288.872 193.358 288.147 193.313 287.421C193.297 286.695 193.293 285.967 193.337 285.419C193.376 284.871 193.441 284.504 193.441 284.504C193.477 284.3 193.672 284.163 193.877 284.199C194.023 284.225 194.135 284.333 194.173 284.467Z" fill="#373735"/>
<path d="M142.695 216.439C142.695 216.439 143.822 216.736 145.513 217.181C147.203 217.617 149.46 218.175 151.737 218.648C154.009 219.139 156.298 219.546 158.019 219.836C159.743 220.118 160.892 220.307 160.892 220.307C161.056 220.334 161.167 220.488 161.141 220.652C161.116 220.805 160.978 220.912 160.827 220.904C160.827 220.904 159.655 220.84 157.905 220.641C156.154 220.449 153.834 220.071 151.536 219.586C149.242 219.08 146.974 218.468 145.298 217.924C143.619 217.381 142.529 216.963 142.529 216.963C142.386 216.911 142.314 216.752 142.367 216.609C142.416 216.477 142.561 216.406 142.695 216.439Z" fill="#373735"/>
<path d="M141.427 219.104C141.427 219.104 141.849 219.17 142.465 219.294C143.084 219.416 143.898 219.61 144.715 219.793C145.526 219.996 146.34 220.191 146.947 220.363C147.554 220.531 147.957 220.666 147.957 220.666C148.116 220.719 148.201 220.891 148.148 221.05C148.105 221.18 147.979 221.261 147.85 221.257C147.85 221.257 147.421 221.245 146.787 221.162C146.152 221.087 145.317 220.922 144.488 220.728C143.664 220.512 142.849 220.267 142.252 220.039C141.651 219.815 141.267 219.632 141.267 219.632C141.128 219.568 141.066 219.403 141.132 219.264C141.185 219.148 141.309 219.086 141.427 219.104Z" fill="#373735"/>
<path d="M223.666 216.173C223.666 216.173 223.123 216.334 222.172 216.615C221.221 216.89 219.853 217.301 218.201 217.712C214.897 218.556 210.456 219.537 205.975 220.318C201.484 221.045 196.963 221.549 193.564 221.825C191.866 221.977 190.445 222.025 189.453 222.076C188.459 222.118 187.893 222.141 187.893 222.141C187.726 222.149 187.587 222.019 187.58 221.854C187.573 221.692 187.699 221.555 187.859 221.542C187.859 221.542 190.118 221.365 193.493 221.024C195.182 220.868 197.149 220.638 199.25 220.367C201.352 220.089 203.587 219.74 205.818 219.372C210.286 218.664 214.72 217.756 218.021 216.968C221.324 216.21 223.524 215.641 223.524 215.641C223.671 215.603 223.82 215.692 223.859 215.839C223.894 215.983 223.808 216.131 223.666 216.173Z" fill="#373735"/>
<path d="M223.971 219.192C223.971 219.192 223.238 219.549 222.082 219.991C220.933 220.44 219.359 220.93 217.76 221.318C216.155 221.684 214.528 221.947 213.299 222.054C212.071 222.171 211.247 222.175 211.247 222.175C211.081 222.177 210.944 222.043 210.942 221.877C210.941 221.726 211.051 221.601 211.194 221.576C211.194 221.576 211.993 221.444 213.19 221.247C214.385 221.043 215.972 220.754 217.542 220.383C219.115 220.032 220.672 219.6 221.835 219.26C223 218.912 223.777 218.679 223.777 218.679C223.923 218.636 224.076 218.718 224.121 218.864C224.16 218.995 224.097 219.133 223.978 219.191L223.971 219.192Z" fill="#373735"/>
<path d="M253.205 226.183C253.205 226.183 255.246 226.091 258.318 226.048C261.388 226.004 265.482 226.068 269.574 226.231C273.663 226.421 277.749 226.71 280.803 227.022C283.857 227.33 285.887 227.605 285.887 227.605C286.106 227.633 286.261 227.835 286.231 228.054C286.204 228.262 286.017 228.412 285.81 228.403C285.81 228.403 283.772 228.284 280.716 228.106C277.661 227.929 273.591 227.685 269.516 227.511C267.478 227.426 265.442 227.34 263.531 227.26C261.62 227.195 259.835 227.133 258.307 227.081C255.246 226.984 253.206 226.918 253.206 226.918C253.003 226.911 252.844 226.742 252.851 226.54C252.857 226.345 253.015 226.191 253.205 226.183Z" fill="#373735"/>
<path d="M113.424 225.436C113.424 225.436 111.944 225.627 109.723 225.876C107.5 226.122 104.533 226.389 101.563 226.642C98.5915 226.867 95.6191 227.079 93.3855 227.186C91.1518 227.296 89.6607 227.335 89.6607 227.335C89.4391 227.341 89.2556 227.166 89.2494 226.945C89.2433 226.738 89.3972 226.563 89.5979 226.536C89.5979 226.536 91.078 226.343 93.3005 226.102C95.5231 225.86 98.4918 225.605 101.462 225.364C104.434 225.151 107.408 224.95 109.641 224.846C111.875 224.746 113.366 224.704 113.366 224.704C113.569 224.698 113.738 224.858 113.744 225.061C113.749 225.252 113.609 225.412 113.424 225.436Z" fill="#373735"/>
<path d="M104.552 228.975C104.552 228.975 103.96 229.103 103.067 229.237C102.175 229.378 100.98 229.502 99.7847 229.613C98.5866 229.695 97.3872 229.766 96.4847 229.766C95.5821 229.776 94.9775 229.737 94.9775 229.737C94.7547 229.724 94.5848 229.532 94.5995 229.309C94.6106 229.124 94.7448 228.976 94.9172 228.939C94.9172 228.939 95.5095 228.81 96.4034 228.683C97.2961 228.547 98.4918 228.435 99.6886 228.335C100.888 228.263 102.087 228.206 102.991 228.209C103.894 228.207 104.499 228.244 104.499 228.244C104.704 228.256 104.859 228.432 104.847 228.637C104.834 228.805 104.711 228.941 104.552 228.975Z" fill="#373735"/>
<path d="M138.86 145.782C138.86 145.782 139.039 145.456 139.308 144.968C139.576 144.485 139.942 143.852 140.276 143.202C140.626 142.562 140.945 141.905 141.198 141.414C141.445 140.921 141.624 140.594 141.624 140.594C141.704 140.446 141.889 140.392 142.036 140.472C142.153 140.536 142.211 140.669 142.19 140.793C142.19 140.793 142.126 141.174 141.951 141.722C141.785 142.273 141.48 142.979 141.121 143.657C140.745 144.326 140.316 144.964 139.946 145.405C139.577 145.854 139.3 146.109 139.3 146.109L139.29 146.119C139.178 146.224 139.002 146.216 138.899 146.104C138.816 146.014 138.804 145.884 138.86 145.782Z" fill="#373735"/>
<path d="M224.652 146.27C224.652 146.27 224.432 146.009 224.14 145.594C223.843 145.183 223.49 144.611 223.144 144.033C222.816 143.446 222.499 142.853 222.293 142.389C222.083 141.929 221.971 141.606 221.971 141.606C221.915 141.446 222 141.272 222.159 141.217C222.282 141.175 222.413 141.216 222.493 141.308C222.493 141.308 222.713 141.569 223.001 141.987C223.295 142.4 223.641 142.977 223.979 143.558C224.299 144.15 224.609 144.746 224.812 145.211C225.019 145.674 225.131 145.997 225.131 145.997C225.182 146.142 225.106 146.302 224.959 146.353C224.846 146.394 224.725 146.357 224.652 146.27Z" fill="#373735"/>
</svg>
