<svg width="128" height="184" viewBox="0 0 128 184" fill="none" xmlns="http://www.w3.org/2000/svg">
<path d="M72.0589 14.351C72.9102 15.0671 73.4866 16.0513 74.0089 17.0355C79.3761 27.1374 80.5752 39.3659 77.3837 50.3451C77.8172 49.7991 78.2528 49.2531 78.6617 48.72C79.8116 47.2571 80.8856 45.8585 81.9912 44.6171C84.1668 42.1097 86.0202 39.8743 87.6599 38.1601C88.6728 37.082 89.5379 36.172 90.273 35.4044C92.2506 18.8604 102.59 8.60521 117.268 1.50629C119.885 0.241204 123.133 -0.784519 125.554 0.827748C127.692 2.2501 128.246 5.20362 127.908 7.75456C127.536 10.5736 126.334 13.2115 125.001 15.7199C121.653 22.0147 117.27 27.9089 111.407 31.9435C105.582 35.9514 98.1538 37.9425 91.2968 36.26C90.6011 37.079 89.7724 38.0474 88.7871 39.1858C87.2401 40.987 85.4704 43.2383 83.3559 45.7595C82.6642 46.63 81.932 47.5508 81.1822 48.4945C85.7719 45.8011 90.3627 43.8901 95.7673 43.1285C102.017 42.2482 108.56 43.0157 114.244 45.7724C116.999 47.1087 119.813 49.3936 119.825 52.4638C119.833 54.7655 118.192 56.7902 116.253 58.0207C113.041 60.0583 109 60.4025 105.244 59.8278C101.488 59.2531 97.9203 57.8367 94.3405 56.5578C89.1576 54.7061 83.8742 53.1374 78.5277 51.8337C77.8586 52.6765 77.1748 53.535 76.4713 54.4203C74.0049 57.6399 71.2824 61.0959 68.6614 64.9406C68.487 65.177 68.3274 65.4351 68.1559 65.6765C73.9241 60.9604 81.5389 58.5162 88.9625 59.175C90.204 59.2858 91.4771 59.4905 92.5383 60.1453C94.7809 61.5291 95.4549 64.7487 94.3898 67.1641C93.3246 69.5795 90.8672 71.174 88.2934 71.7279C85.7197 72.2818 83.0337 71.9208 80.4757 71.2976C77.9177 70.6745 75.4228 69.7912 72.8403 69.2818C70.6134 68.8417 68.3313 68.6992 66.065 68.8278C64.3574 71.5696 62.7513 74.4895 61.1235 77.4836C59.7066 80.0306 58.0876 82.5242 56.4618 85.0553C62.4419 80.6834 70.1926 78.9158 77.6468 77.9416C83.5894 77.1651 90.1863 76.9238 94.9583 80.5617C96.4097 81.6686 97.6621 83.1948 97.9281 85.0049C98.1725 86.6617 97.5596 88.3382 96.6906 89.7685C93.9148 94.3362 88.5762 96.904 83.2642 97.3689C77.9522 97.8348 72.6412 96.447 67.6495 94.5647C63.0469 92.8308 58.5981 90.6913 53.961 89.0612C53.6122 89.6359 53.2545 90.2017 52.9176 90.7883C51.5962 93.1008 50.264 95.4312 48.9269 97.7714C47.646 100.143 46.3266 102.507 44.9717 104.854C44.9175 104.95 44.8643 105.047 44.8101 105.144C52.0406 99.9544 61.761 98.354 70.237 101.097C71.381 101.467 72.5614 101.953 73.2866 102.915C74.5971 104.65 73.8325 107.321 72.1762 108.728C70.5198 110.134 68.2623 110.56 66.1044 110.781C58.469 111.563 50.6454 110.367 43.5794 107.358C41.4196 111.263 39.3622 115.216 37.8753 119.378C37.1333 121.183 36.3155 122.934 35.4828 124.667C42.0669 118.432 51.2287 115.008 60.3352 114.88C66.2236 114.798 72.4668 116.174 76.6605 120.322C77.6468 121.298 78.5149 122.439 78.9257 123.767C79.9968 127.233 77.5325 131.025 74.268 132.586C71.0036 134.146 67.2031 133.988 63.6105 133.566C53.9581 132.43 44.5145 129.623 34.8069 129.171C34.3073 129.147 33.8038 129.132 33.3042 129.148C32.583 130.619 31.8716 132.085 31.2104 133.55C29.0515 138.06 27.0769 142.476 25.2894 146.706C28.5302 142.983 32.4371 139.819 36.9954 137.995C42.4276 135.821 48.8402 135.722 53.9689 138.546C54.3098 138.734 54.6577 138.946 54.8676 139.274C55.1109 139.654 55.1346 140.133 55.0863 140.582C54.7907 143.347 52.2042 145.255 49.6906 146.426C42.2413 149.897 33.7742 150.011 25.517 149.796L24.2785 149.246C24.2134 149.416 24.1415 149.588 24.0775 149.757C24.5563 149.771 25.0372 149.783 25.518 149.796L25.8945 149.963C25.2826 149.909 24.6716 149.855 24.0607 149.8C22.8123 153.098 21.7609 156.314 20.5292 159.214C14.2191 174.227 9.45791 184 9.45791 184L8.47551 183.581C8.47551 183.581 12.004 173.283 18.1279 158.19C18.3536 157.622 18.6137 157.047 18.863 156.475C12.8406 150.623 6.17966 145.133 2.52107 137.593C1.82246 136.152 1.23223 134.577 1.41156 132.985C1.59188 131.394 2.76248 129.816 4.35184 129.668C5.73921 129.538 6.98666 130.469 8.02226 131.405C14.6369 137.391 18.9113 145.293 19.9479 154.06C21.1185 151.558 22.3955 148.979 23.574 146.22C24.3701 144.34 25.1879 142.409 26.0186 140.446C18.9458 134.881 12.5411 128.462 7.00735 121.355C3.41084 116.737 0.0527769 111.453 0.000553618 105.591C-0.0171826 103.6 0.388764 101.536 1.57611 99.9406C2.76345 98.3452 4.84647 97.3283 6.77479 97.8001C8.21142 98.1513 9.34753 99.2284 10.3723 100.298C18.661 108.945 24.5031 119.927 27.0502 131.648C27.402 133.266 27.671 134.96 27.6415 136.611C28.1903 135.315 28.7441 134.009 29.3037 132.686C30.3118 130.345 31.3168 127.955 32.3888 125.559C33.1673 123.818 33.9408 122.054 34.8197 120.327C29.1944 115.239 24.8431 108.742 22.3078 101.581C21.5816 99.5291 20.9983 97.2996 21.554 95.1958C22.1097 93.0919 24.1868 91.2531 26.3112 91.6973C27.4877 91.9436 28.4317 92.8051 29.2555 93.6834C34.9862 99.7962 37.7403 108.545 36.754 116.858C37.1313 116.208 37.5077 115.559 37.8871 114.905C38.5532 113.732 39.1306 112.51 39.7425 111.304C40.7032 109.442 41.593 107.536 42.4877 105.631C36.8545 98.5855 32.6391 90.4025 30.2004 81.7081C29.1845 78.0889 28.4682 74.3333 28.7273 70.5825C28.9865 66.8318 30.295 63.0622 32.8914 60.352C33.7132 59.4945 34.6877 58.7338 35.8327 58.4282C37.4565 57.996 39.2262 58.5528 40.5672 59.5677C41.9093 60.5835 42.8808 62.0098 43.7105 63.4757C47.0252 69.3263 48.4175 76.1443 48.4155 82.8743C48.4145 87.9485 47.7455 92.6498 46.6123 97.4243C46.7375 97.1849 46.8547 96.9396 46.9818 96.7002C48.2874 94.3254 49.5881 91.9594 50.8779 89.6112C53.2181 85.5964 55.2469 81.4579 57.6945 77.716C53.0141 71.8387 49.7447 64.8367 48.2973 57.4549C47.9297 55.5795 47.6765 53.6448 47.9997 51.7615C48.3258 49.8634 49.2481 48.0731 50.603 46.7091C51.4819 45.8238 52.6219 45.0899 53.8684 45.0948C55.7258 45.1028 57.1693 46.6913 58.1734 48.26C62.8459 55.5667 63.244 64.9099 60.8072 73.3204C61.6556 72.1958 62.5138 71.0929 63.3346 69.991C64.7841 68.0078 66.1104 66.0088 67.483 64.1166C68.8398 62.2145 70.0685 60.2996 71.3672 58.5251C71.8392 57.8693 72.2973 57.2304 72.7575 56.5914C65.3428 48.0761 61.0466 36.8812 60.8831 25.5755C60.8348 22.2303 61.2132 18.6685 63.2578 16.0266C65.3073 13.3836 69.5039 12.2007 72.0589 14.351Z" fill="#3E7BA8"/>
</svg>
