<svg width="141" height="129" viewBox="0 0 141 129" fill="none" xmlns="http://www.w3.org/2000/svg">
<path d="M12.6262 110.07C20.5828 117.929 30.3197 124.258 41.2112 126.796C52.1027 129.334 64.144 127.845 73.3855 121.547C76.8004 119.221 79.8656 116.178 81.4408 112.357C82.512 109.758 82.8503 106.922 83.6427 104.224C85.6299 97.4627 90.6315 91.6486 97.0206 88.6754C105.936 84.5265 117.812 85.2374 123.692 77.3565C127.418 72.3626 127.284 65.528 126.426 59.3554C125.567 53.1829 124.162 46.813 125.879 40.8226C127.724 34.3866 132.85 29.5095 136.394 23.8285C139.936 18.1475 141.588 9.97916 136.833 5.26594C135.227 3.67347 133.094 2.71913 130.938 2.03404C124.256 -0.0892583 116.857 0.116754 110.303 2.60895C104.849 4.68338 99.9258 8.29088 94.1729 9.26726C84.7034 10.8741 75.3497 5.0197 65.7671 5.67604C57.9935 6.20783 50.7229 11.4116 47.7114 18.5979C45.6695 23.4702 45.5249 28.8896 44.6798 34.1039C43.8347 39.3182 41.9988 44.7942 37.6966 47.8594C32.5015 51.5608 25.4292 50.6572 19.272 52.3225C12.4997 54.1545 6.85992 59.2414 3.55042 65.4274C3.55042 65.4274 -7.11397 90.5744 12.6262 110.07Z" fill="#5A9FD1"/>
<path d="M12.9042 109.781C15.7701 112.585 18.8036 115.169 22.0709 117.467C25.3421 119.745 28.8174 121.734 32.4719 123.298C39.7683 126.449 47.7987 127.899 55.6633 127.071C59.5889 126.673 63.4705 125.759 67.1 124.216C68.909 123.44 70.6769 122.552 72.3211 121.469C74.0036 120.423 75.5395 119.211 76.9337 117.834C78.3163 116.457 79.5179 114.901 80.3946 113.18C81.2876 111.465 81.7657 109.562 82.2132 107.613C82.6453 105.661 83.1263 103.66 83.9206 101.756C84.6967 99.8495 85.7162 98.0596 86.913 96.3963C89.3113 93.0753 92.4914 90.309 96.1708 88.4751C96.4075 88.3592 96.6135 88.247 96.876 88.1282L97.5678 87.8331C98.0325 87.6405 98.4771 87.4221 98.9696 87.2544C99.9335 86.8798 100.901 86.5597 101.869 86.2617C103.808 85.6705 105.77 85.1962 107.706 84.676C111.554 83.6344 115.457 82.6111 118.692 80.5491C120.295 79.522 121.732 78.285 122.844 76.7807C123.06 76.4501 123.426 75.9538 123.618 75.583C123.835 75.1959 124.052 74.804 124.236 74.3651C124.626 73.5181 124.918 72.6203 125.165 71.7101C125.633 69.8761 125.839 67.954 125.841 66.0137C125.87 64.0725 125.73 62.1121 125.49 60.1526C125.017 56.2222 124.246 52.2248 124.165 48.1018C124.118 46.0455 124.262 43.9548 124.695 41.9043C124.816 41.386 124.933 40.9021 125.096 40.3636C125.259 39.8826 125.383 39.4208 125.597 38.9139C125.974 37.9001 126.426 36.988 126.913 36.0672C128.887 32.4194 131.529 29.3188 133.84 26.0984C134.983 24.5011 136.129 22.8263 136.93 21.1159C137.761 19.3663 138.384 17.5152 138.717 15.6247C139.065 13.739 139.081 11.7978 138.635 9.98108C138.223 8.14715 137.197 6.53264 135.806 5.2899C134.393 4.07207 132.596 3.26816 130.741 2.65877C128.848 2.04554 126.961 1.63353 124.992 1.38824C121.084 0.889988 117.08 1.22151 113.278 2.23812C112.331 2.49683 111.39 2.82836 110.487 3.17043C109.544 3.54986 108.663 3.93312 107.764 4.36717C105.98 5.24006 104.231 6.2174 102.426 7.13532C100.623 8.05229 98.7636 8.93859 96.7687 9.5432C95.7664 9.83831 94.7671 10.1076 93.6959 10.235C93.189 10.2915 92.7233 10.3941 92.1829 10.4132L90.5809 10.4697C82.1825 10.3576 74.7356 6.3525 66.9132 6.46844C59.1922 6.4876 51.6697 11.4442 48.5164 18.5337C45.3171 25.695 46.5732 34.2428 43.1803 41.9139C42.3506 43.8111 41.2094 45.6067 39.7213 47.1216C39.3333 47.4828 38.9558 47.8584 38.5284 48.1775L38.2151 48.4256C38.0522 48.554 37.9899 48.5809 37.8721 48.6633L37.2454 49.0801C36.3227 49.6339 35.3444 50.1158 34.3642 50.456C32.3875 51.1823 30.3409 51.5483 28.3345 51.8358C26.3242 52.1318 24.3351 52.3282 22.4015 52.6463C18.5296 53.2088 14.9575 54.7533 11.8406 57.0654C8.74284 59.3832 6.18452 62.4283 4.31418 65.8365L4.34772 65.7656C3.98841 66.6251 3.66264 67.5813 3.37423 68.5146C3.08391 69.4555 2.82424 70.4088 2.60098 71.3718C2.14777 73.2958 1.8105 75.2495 1.60162 77.2176C1.39274 79.1857 1.31226 81.1681 1.36783 83.1467C1.38987 84.1365 1.45119 85.1254 1.55275 86.1103C1.63899 87.0973 1.79231 88.0755 1.94274 89.0548C2.13533 90.0254 2.31065 91.0018 2.57128 91.958C2.79165 92.9248 3.11266 93.8638 3.40491 94.8115C3.74793 95.7409 4.07753 96.678 4.49433 97.5786C4.86802 98.4985 5.34136 99.3723 5.78307 100.261C6.27748 101.12 6.74122 102.001 7.296 102.825L8.11524 104.069C8.39694 104.478 8.70547 104.869 8.99867 105.27C9.57261 106.083 10.2366 106.826 10.8719 107.592C11.5158 108.35 12.2277 109.049 12.9032 109.781H12.9042ZM12.3446 110.356C11.648 109.619 10.9141 108.917 10.2481 108.151C9.58987 107.379 8.90382 106.629 8.30689 105.805C8.00219 105.399 7.68215 105.003 7.38895 104.589L6.53524 103.326C5.95746 102.489 5.46975 101.593 4.9533 100.718C4.48955 99.8121 3.99321 98.922 3.59749 97.983C3.15673 97.0641 2.81274 96.105 2.44001 95.1564C2.11711 94.1915 1.76546 93.2324 1.51442 92.2445C1.22314 91.2663 1.0181 90.2678 0.796759 89.2713C0.617582 88.2672 0.435535 87.263 0.322471 86.2493C0.194077 85.2374 0.106867 84.2199 0.0599167 83.2013C-0.0454817 81.1633 -0.010975 79.1186 0.156704 77.0844C0.324384 75.0502 0.624299 73.0266 1.04589 71.0259C1.25381 70.0256 1.49908 69.032 1.77791 68.0451C2.06153 67.0514 2.35666 66.0942 2.75046 65.0891L2.76099 65.0613L2.784 65.0172C4.72621 61.3714 7.40236 58.0964 10.7042 55.5601C12.357 54.2992 14.1603 53.2184 16.0862 52.3972C16.5577 52.1797 17.0818 52.0187 17.5781 51.829C18.0859 51.6585 18.5123 51.5406 19.0566 51.3787C20.0684 51.1257 21.0859 50.9063 22.0987 50.7549C26.1374 50.0804 30.1751 50.1273 33.8229 48.8932C34.7475 48.6 35.5868 48.21 36.4003 47.7616L37.0385 47.363C37.1276 47.3046 37.2895 47.2136 37.3192 47.181L37.6009 46.9692C37.988 46.7 38.331 46.3742 38.6884 46.0637C40.0567 44.7491 41.1145 43.1107 41.9213 41.3486C45.2826 34.2055 43.8702 25.6682 47.2276 17.9636C50.5908 10.3509 58.4861 4.9507 66.8892 4.81848C75.2837 4.66613 82.8245 8.54574 90.5972 8.62144C91.5314 8.59077 92.4589 8.58408 93.4812 8.44131C94.4078 8.35987 95.3612 8.13086 96.2877 7.88366C98.1475 7.35762 99.9776 6.63037 101.784 5.79773C103.594 4.97274 105.391 4.06822 107.245 3.24612C108.16 2.82452 109.128 2.42402 110.054 2.07237C111.032 1.71977 111.993 1.40836 112.986 1.14774C116.928 0.0630977 121.069 -0.243523 125.133 0.188611C127.151 0.400366 129.207 0.818121 131.142 1.41027C133.094 2.01679 135.063 2.83028 136.731 4.21196C138.361 5.60226 139.608 7.51093 140.115 9.59974C140.66 11.6751 140.679 13.8387 140.322 15.8968C139.97 17.9607 139.308 19.9479 138.428 21.8269C137.526 23.7567 136.391 25.4085 135.213 27.0796C132.863 30.3795 130.289 33.4504 128.454 36.8912C128.007 37.7449 127.575 38.6389 127.258 39.5089C127.077 39.9267 126.939 40.4355 126.782 40.905C126.658 41.3266 126.539 41.8191 126.435 42.278C126.05 44.157 125.909 46.0982 126.002 48.051C126.149 51.9651 126.973 55.8706 127.534 59.892C128.086 63.9125 128.316 68.1265 127.245 72.2553C126.974 73.2805 126.627 74.2952 126.15 75.2572C125.932 75.7401 125.657 76.2221 125.367 76.7011C125.071 77.2061 124.824 77.5108 124.475 78.0071C123.152 79.704 121.484 81.1068 119.655 82.1474C115.981 84.2582 111.932 85.1052 108.03 86.0011C104.108 86.897 100.23 87.7287 96.6719 89.4745C93.1583 91.2154 90.1037 93.86 87.8003 97.0373C86.6457 98.6221 85.6702 100.35 84.9545 102.169C84.2148 103.981 83.7644 105.902 83.3467 107.868C82.9136 109.823 82.4278 111.859 81.4735 113.724C80.5393 115.586 79.2639 117.252 77.8142 118.712C71.8909 124.462 63.8854 127.612 55.8003 128.445C51.7339 128.82 47.6483 128.646 43.6201 127.924C39.638 127.198 35.7315 125.931 32.0522 124.25C28.3527 122.595 24.8688 120.501 21.5861 118.155C18.2948 115.826 15.2095 113.178 12.3494 110.36L12.3446 110.356Z" fill="#3E7BA8"/>
<path d="M126.303 14.1108C126.303 14.1108 125.755 14.1798 124.761 14.3513C123.777 14.5151 122.318 14.8275 120.512 15.3593C116.9 16.4286 111.891 18.5595 106.488 22.1853C105.082 23.0447 103.777 24.0805 102.347 25.0827C100.984 26.1798 99.533 27.2616 98.1485 28.5072C95.32 30.9247 92.5097 33.6765 89.7415 36.6555C84.1755 42.5932 78.8549 49.493 73.6568 56.4896C68.4501 63.4756 63.2626 70.5334 57.9218 76.7835C55.2782 79.9282 52.5503 82.8286 49.8713 85.4846C47.2085 88.1589 44.4921 90.4882 41.9338 92.5655C40.6202 93.563 39.3947 94.5633 38.1385 95.395C37.5195 95.8223 36.9168 96.2391 36.3304 96.6435C35.7249 97.0191 35.1365 97.3841 34.5674 97.7386C33.9944 98.0865 33.4512 98.4419 32.906 98.7514C32.356 99.0513 31.8251 99.3407 31.3154 99.6186C30.8056 99.8964 30.317 100.162 29.8494 100.417C29.3684 100.645 28.9094 100.862 28.4744 101.068C27.5996 101.472 26.8331 101.862 26.1413 102.147C25.4456 102.423 24.8545 102.659 24.3754 102.85C23.4172 103.23 22.9056 103.433 22.9056 103.433C22.6488 103.536 22.3575 103.41 22.2559 103.153C22.1553 102.899 22.276 102.613 22.5271 102.507L22.5568 102.495C22.5568 102.495 23.056 102.286 23.9912 101.894C24.4587 101.699 25.0356 101.457 25.713 101.174C26.3866 100.881 27.1339 100.484 27.9858 100.073C28.4093 99.8629 28.8558 99.6416 29.3243 99.4097C29.7785 99.151 30.2547 98.8808 30.7501 98.5991C31.2454 98.3174 31.7619 98.0242 32.2965 97.7205C32.8255 97.4071 33.3544 97.0469 33.9111 96.6952C34.4649 96.3378 35.036 95.9689 35.6233 95.5895C36.1925 95.1813 36.7779 94.7607 37.3787 94.3295C38.6013 93.4969 39.8 92.5013 41.082 91.5077C43.5818 89.4371 46.2341 87.1174 48.8393 84.4489C51.4561 81.7967 54.1265 78.9059 56.7471 75.7861C59.3753 72.674 61.993 69.3711 64.5858 65.962C67.1547 62.5212 69.7637 59.0258 72.3728 55.5295C77.6073 48.5415 82.9903 41.614 88.6444 35.6274C91.4471 32.6159 94.3436 29.8707 97.2373 27.4408C98.6554 26.1923 100.143 25.1057 101.54 24.0058C103.008 22.9968 104.396 21.9294 105.794 21.0968C108.537 19.2763 111.243 17.8697 113.688 16.763C116.138 15.6544 118.367 14.8974 120.226 14.3714C122.092 13.8588 123.578 13.5685 124.615 13.4142C125.639 13.257 126.176 13.2005 126.176 13.2005L126.196 13.1986C126.448 13.1718 126.673 13.3538 126.7 13.6058C126.729 13.8559 126.55 14.0801 126.303 14.1108Z" fill="#3E7BA8"/>
<path d="M76.2312 51.3154C76.2312 51.3154 75.892 50.8248 75.297 49.9654C74.7173 49.102 73.8665 47.8516 72.9323 46.3195C71.9866 44.7903 70.9201 42.9822 69.8393 41.0094C68.7748 39.0279 67.6892 36.8883 66.6534 34.7238C65.6464 32.5459 64.7074 30.3373 63.8661 28.2514C63.0325 26.1625 62.3397 24.1801 61.7696 22.4746C61.1871 20.7729 60.7827 19.3289 60.4886 18.3228C60.2097 17.312 60.0507 16.7342 60.0507 16.7342C59.9769 16.4678 60.134 16.1919 60.4004 16.1181C60.6543 16.0481 60.9159 16.1861 61.0041 16.4305L61.0079 16.44C61.0079 16.44 61.2091 16.9996 61.5607 17.9788C61.8999 18.9619 62.4241 20.3522 63.0478 22.0194C63.3554 22.855 63.709 23.7528 64.0865 24.7004C64.4698 25.6451 64.8741 26.6416 65.2919 27.6717C66.1408 29.7279 67.1066 31.8943 68.1041 34.0464C69.0987 36.2003 70.1412 38.3313 71.1664 40.306C71.6838 41.291 72.1849 42.2425 72.6592 43.1451C73.1412 44.0439 73.6011 44.8919 74.0428 45.6651C74.9147 47.2212 75.6401 48.5041 76.1776 49.4039C76.7036 50.3065 77.0045 50.8219 77.0045 50.8219C77.1319 51.0404 77.0581 51.3221 76.8387 51.4495C76.6308 51.5722 76.3663 51.5099 76.2312 51.3154Z" fill="#3E7BA8"/>
<path d="M72.3403 57.1277C72.3403 57.1277 72.8932 57.4726 73.861 58.0772C74.3391 58.3944 74.9331 58.7326 75.6125 59.1197C76.2832 59.5193 77.0641 59.9371 77.9207 60.3893C78.7649 60.8607 79.7173 61.3043 80.7118 61.7921C81.716 62.2616 82.7863 62.7349 83.8968 63.214C85.0083 63.6931 86.1677 64.1635 87.3587 64.61C88.5477 65.0613 89.7656 65.4963 90.992 65.9074C92.2156 66.3261 93.444 66.7372 94.6609 67.1195C95.8787 67.4999 97.0793 67.8678 98.2492 68.2022C100.586 68.8777 102.773 69.5072 104.655 70.0217C106.536 70.5459 108.104 70.9828 109.202 71.2875C109.455 71.3555 109.782 71.4561 109.843 71.4619C109.893 71.4715 109.914 71.4571 109.855 71.4877C109.809 71.5452 109.705 71.5356 109.73 71.8557C109.775 72.0329 109.869 72.0847 109.909 72.1096C109.947 72.1316 109.97 72.1326 109.985 72.1364C110.023 72.1297 110.038 72.1652 110.209 72.0751C110.306 72.0234 110.418 71.8605 110.415 71.7072C110.427 71.6209 110.376 71.5107 110.376 71.5107C110.355 71.4657 110.336 71.4494 110.336 71.4494C110.504 71.6698 110.461 71.9831 110.241 72.1508C110.02 72.3185 109.706 72.2754 109.539 72.055C109.539 72.055 109.511 72.0205 109.469 71.941C109.455 71.9237 109.405 71.7876 109.41 71.6736C109.411 71.4897 109.538 71.2942 109.67 71.2223C109.91 71.092 110.028 71.1198 110.18 71.1352C110.254 71.1476 110.336 71.1716 110.433 71.2252C110.529 71.2856 110.68 71.3891 110.745 71.642C110.788 72.1163 110.567 72.2696 110.359 72.4153C110.133 72.5369 109.942 72.5408 109.772 72.5379C109.391 72.5063 109.233 72.4373 108.93 72.3808C107.817 72.1297 106.22 71.7972 104.318 71.3373C102.417 70.8669 100.188 70.359 97.8286 69.6835C95.4686 69.0147 92.9515 68.2846 90.4727 67.4223C89.2348 66.9892 88.0035 66.5321 86.801 66.0568C85.5966 65.5864 84.4228 65.093 83.297 64.5899C82.1663 64.0984 81.1028 63.556 80.0938 63.0482C79.0964 62.5145 78.144 62.0287 77.2989 61.5171C76.4394 61.0332 75.669 60.5551 74.9993 60.1038C74.3228 59.6649 73.7335 59.2836 73.2794 58.9434C72.3566 58.2727 71.8296 57.8885 71.8296 57.8885C71.6246 57.739 71.5796 57.4525 71.7281 57.2475C71.868 57.052 72.1382 57.0022 72.3403 57.1277Z" fill="#3E7BA8"/>
<path d="M40.0356 92.8376C40.0356 92.8376 41.7392 93.905 44.2937 95.5061C44.9318 95.9037 45.6227 96.3339 46.3537 96.7881C47.0896 97.2317 47.8657 97.6993 48.6687 98.1832C50.2794 99.1366 52.0165 100.114 53.7939 101.002C54.6889 101.429 55.5665 101.898 56.4643 102.278C57.3497 102.69 58.2427 103.036 59.105 103.376C59.9779 103.682 60.8154 104.004 61.626 104.252C62.4356 104.503 63.2031 104.74 63.9256 104.899C64.6423 105.086 65.3053 105.229 65.8975 105.337C66.4868 105.46 67.0032 105.557 67.4334 105.602C68.291 105.725 68.7816 105.795 68.7816 105.795L68.8151 105.8C69.0882 105.839 69.2789 106.092 69.2396 106.366C69.2022 106.624 68.9732 106.807 68.7183 106.794C68.7183 106.794 68.2067 106.767 67.3127 106.721C66.8633 106.706 66.3229 106.644 65.703 106.56C65.3925 106.521 65.062 106.48 64.7142 106.437C64.3702 106.37 64.0089 106.298 63.6314 106.224C62.8726 106.09 62.0667 105.878 61.214 105.654C60.3593 105.437 59.4787 105.138 58.5723 104.82C57.6755 104.48 56.746 104.132 55.8291 103.719C54.8996 103.333 53.9865 102.879 53.0705 102.431C51.2624 101.489 49.508 100.462 47.8887 99.4662C46.2829 98.4505 44.8217 97.4483 43.5818 96.5792C42.3381 95.7149 41.333 94.9484 40.623 94.4291C39.9206 93.8973 39.5191 93.5936 39.5191 93.5936C39.316 93.4412 39.2748 93.1538 39.4272 92.9506C39.568 92.759 39.8363 92.714 40.0356 92.8376Z" fill="#3E7BA8"/>
<path d="M58.8388 73.4903C58.8388 73.4903 58.5945 73.1425 58.1662 72.5331C57.7522 71.9208 57.1352 71.0297 56.4712 69.9355C55.7995 68.8422 55.0368 67.5525 54.275 66.1392C53.5267 64.7192 52.7659 63.1842 52.0406 61.632C51.3421 60.0673 50.6982 58.4796 50.1214 56.982C49.5484 55.4815 49.0933 54.0529 48.7129 52.8274C48.3229 51.6048 48.07 50.5633 47.8802 49.8408C47.7049 49.1135 47.6052 48.6977 47.6052 48.6977C47.5401 48.4285 47.7059 48.1583 47.9751 48.0931C48.2252 48.0327 48.4772 48.1717 48.5634 48.4083L48.5682 48.4208C48.5682 48.4208 49.1412 50.0104 50.0007 52.3943C50.4203 53.5882 50.9895 54.9507 51.5577 56.4244C52.1422 57.8923 52.8119 59.4378 53.5018 60.9747C54.184 62.5145 54.9026 64.0389 55.6107 65.4513C56.3246 66.8607 56.9771 68.1859 57.5893 69.2935C58.1911 70.4107 58.6807 71.3325 59.0525 71.9812C59.4118 72.6327 59.6178 73.0054 59.6178 73.0054C59.7404 73.2277 59.6599 73.5066 59.4376 73.6292C59.2297 73.7423 58.972 73.6781 58.8388 73.4903Z" fill="#3E7BA8"/>
<path d="M53.7279 78.8053C53.7279 78.8053 54.0824 78.9864 54.7033 79.3026C55.3242 79.6322 56.1923 80.049 57.2655 80.5491C57.7953 80.8069 58.3808 81.0618 59.0007 81.3272C59.6158 81.6041 60.2875 81.8417 60.9621 82.133C62.3284 82.6753 63.8088 83.1946 65.3055 83.6555C66.0586 83.8711 66.8011 84.1203 67.5495 84.3109C68.2911 84.5236 69.0318 84.6913 69.7456 84.8657C70.4652 85.0113 71.1551 85.1838 71.8172 85.3122C72.4773 85.4463 73.104 85.569 73.6856 85.659C74.8469 85.8516 75.8194 86.0107 76.5026 86.0912C77.1867 86.1841 77.5767 86.2378 77.5767 86.2378L77.592 86.2397C77.8661 86.2771 78.0587 86.5291 78.0213 86.8041C77.9868 87.0589 77.7655 87.2429 77.5144 87.2372C77.5144 87.2372 77.112 87.2285 76.4087 87.2132C75.7064 87.1816 74.6974 87.1519 73.4978 87.0043C72.2972 86.873 70.8964 86.6785 69.415 86.37C67.9366 86.0509 66.37 85.6571 64.8264 85.1838C63.2933 84.6769 61.7813 84.1097 60.3881 83.5214C59.0026 82.9139 57.7407 82.2815 56.682 81.6999C55.6222 81.1327 54.7551 80.5741 54.1744 80.2042C53.5947 79.8181 53.2632 79.5967 53.2632 79.5967C53.0524 79.4559 52.9949 79.1703 53.1358 78.9595C53.268 78.7631 53.5238 78.6999 53.7279 78.8053Z" fill="#3E7BA8"/>
<path d="M87.8674 37.1404C87.8674 37.1404 88.2948 37.3502 89.0421 37.7182C89.7895 38.0986 90.8425 38.591 92.1341 39.1784C92.7742 39.4793 93.4775 39.7821 94.2239 40.0973C94.9646 40.424 95.7694 40.7134 96.582 41.0574C98.2233 41.707 99.9978 42.3375 101.791 42.9085C102.691 43.1787 103.582 43.4835 104.476 43.7278C105.364 43.9942 106.249 44.2136 107.102 44.4378C107.962 44.6333 108.786 44.8546 109.577 45.028C110.366 45.2072 111.114 45.373 111.808 45.5023C113.196 45.7735 114.355 45.9967 115.171 46.1213C115.987 46.2593 116.453 46.3378 116.453 46.3378L116.467 46.3397C116.74 46.3857 116.923 46.6445 116.877 46.9166C116.834 47.1724 116.601 47.3506 116.347 47.3324C116.347 47.3324 115.869 47.2979 115.032 47.2376C114.198 47.1609 112.999 47.0651 111.577 46.839C110.153 46.6291 108.495 46.3426 106.739 45.9335C104.987 45.5148 103.13 45.0137 101.298 44.4311C99.4766 43.8159 97.6771 43.1385 96.0138 42.4467C94.359 41.7348 92.8442 41.0037 91.5688 40.3359C90.2916 39.6824 89.2462 39.0529 88.5362 38.6303C87.8281 38.1915 87.4228 37.9414 87.4228 37.9414C87.2072 37.8082 87.1411 37.5246 87.2743 37.309C87.3998 37.1078 87.6585 37.0379 87.8674 37.1404Z" fill="#3E7BA8"/>
<path d="M94.2601 30.9631C94.2601 30.9631 94.1145 30.7772 93.8596 30.4523C93.621 30.1266 93.2425 29.6283 92.8708 29.018C92.4913 28.4067 92.0669 27.6775 91.6683 26.8678C91.2831 26.0515 90.9085 25.1642 90.5693 24.2616C90.2569 23.3494 90.0011 22.42 89.7874 21.5424C89.5776 20.6637 89.4626 19.8272 89.3735 19.1124C89.2748 18.3986 89.2671 17.795 89.247 17.3762C89.2432 16.9566 89.2403 16.7161 89.2403 16.7161C89.2374 16.4391 89.4597 16.2121 89.7376 16.2092C89.9819 16.2063 90.1869 16.3788 90.2348 16.6097L90.2387 16.627C90.2387 16.627 90.2856 16.854 90.3671 17.2517C90.4351 17.6503 90.5702 18.2127 90.713 18.8863C90.8443 19.5637 91.0771 20.3341 91.2812 21.1668C91.5015 21.9965 91.7832 22.8675 92.0812 23.7327C92.3715 24.5999 92.6973 25.4565 93.0356 26.247C93.3795 27.0336 93.6842 27.78 93.9985 28.3942C94.3032 29.0199 94.5389 29.5229 94.7392 29.8918C94.926 30.2598 95.0324 30.4706 95.0324 30.4706C95.1474 30.6976 95.0573 30.9746 94.8302 31.0905C94.6309 31.1901 94.3923 31.1327 94.2601 30.9631Z" fill="#3E7BA8"/>
</svg>
