<svg width="24" height="18" viewBox="0 0 24 18" fill="none" xmlns="http://www.w3.org/2000/svg">
<path d="M23.309 2.44928C23.309 2.44928 23.256 3.01815 22.9778 3.64859C22.7192 4.3012 22.2365 5.0166 21.6294 5.59163C21.0249 6.17036 20.2947 6.60747 19.6273 6.80079C18.9833 7.0212 18.4132 7.01014 18.4132 7.01014C17.0649 6.98305 15.9949 5.86745 16.022 4.51914C16.0232 4.46004 16.0269 4.39355 16.0331 4.33567C16.0331 4.33567 16.0872 3.76803 16.3803 3.15483C16.6499 2.51454 17.1684 1.83854 17.8124 1.30537C18.4539 0.768514 19.2197 0.372037 19.8982 0.189801C20.5569 -0.0133687 21.1283 0.000167353 21.1283 0.000167353C22.3658 0.0284879 23.3459 1.05295 23.3188 2.29044C23.3176 2.34216 23.3139 2.39879 23.309 2.44928Z" fill="white"/>
<path d="M9.72497 13.9031C9.72497 13.9031 9.82717 14.3809 9.75575 14.9029C9.7065 15.4447 9.48243 16.0308 9.11795 16.4963C8.75594 16.9642 8.24984 17.3077 7.73391 17.4481C7.24507 17.6119 6.75871 17.5835 6.75871 17.5835C5.40301 17.5035 4.31453 16.5172 4.04364 15.2502C4.04364 15.2502 3.94266 14.7737 4.03132 14.2663C4.09288 13.7356 4.35763 13.184 4.7652 12.7555C5.17031 12.3246 5.71577 12.0155 6.24401 11.885C6.75009 11.736 7.2377 11.7655 7.2377 11.7655C8.48011 11.8406 9.47501 12.7432 9.72497 13.9031Z" fill="white"/>
<path d="M7.50983 5.12125C7.50983 5.12125 7.40884 5.68766 7.07762 6.30209C6.76363 6.93869 6.2194 7.62208 5.56187 8.15771C4.9068 8.6958 4.13598 9.08368 3.4489 9.23144C2.78398 9.40752 2.21141 9.35702 2.21141 9.35702C0.876648 9.23882 -0.10964 8.06044 0.00979895 6.72568C0.0159556 6.65426 0.0270126 6.58037 0.0380946 6.51142C0.0380946 6.51142 0.139072 5.94624 0.485075 5.35028C0.808915 4.726 1.38518 4.08571 2.07718 3.59441C2.76673 3.10065 3.56957 2.75463 4.26651 2.61919C4.9462 2.46158 5.51877 2.5133 5.51877 2.5133C6.74394 2.62412 7.64649 3.70769 7.53444 4.93163C7.52952 4.99566 7.52091 5.06091 7.50983 5.12125Z" fill="white"/>
</svg>
